<?xml version="1.0" encoding="utf-8"?>
<!-- Generator: Adobe Illustrator 16.0.0, SVG Export Plug-In . SVG Version: 6.00 Build 0)  -->
<!DOCTYPE svg PUBLIC "-//W3C//DTD SVG 1.1//EN" "http://www.w3.org/Graphics/SVG/1.1/DTD/svg11.dtd">
<svg version="1.1" id="Layer_1" xmlns="http://www.w3.org/2000/svg" xmlns:xlink="http://www.w3.org/1999/xlink" x="0px" y="0px"
	 width="324px" height="352px" viewBox="0 0 324 352" enable-background="new 0 0 324 352" xml:space="preserve">
<g id="Layer_1_1_">
	<path fill="none" stroke="#2E3191" stroke-width="0.2843" stroke-miterlimit="10" d="M287.444,176.128
		c0,68.823-55.796,124.62-124.615,124.62c-68.825,0-124.617-55.797-124.617-124.62c0-68.825,55.792-124.613,124.617-124.613
		C231.648,51.515,287.444,107.303,287.444,176.128z"/>
	<circle fill="none" stroke="#2E3191" stroke-width="0.5685" stroke-miterlimit="10" cx="162.828" cy="174.957" r="116.383"/>
	<path fill="none" stroke="#2E3191" stroke-width="1.4213" stroke-miterlimit="10" d="M263.683,175.246
		c0,55.706-45.15,100.857-100.854,100.857c-55.701,0-100.855-45.151-100.855-100.857c0-55.697,45.154-100.85,100.855-100.85
		S263.683,119.549,263.683,175.246z"/>
	<path fill="none" stroke="#2E3191" stroke-width="2.3762" stroke-miterlimit="10" d="M213.667,175.542
		c0,28.08-22.762,50.844-50.839,50.844c-28.082,0-50.844-22.764-50.844-50.844s22.762-50.837,50.844-50.837
		C190.906,124.704,213.667,147.462,213.667,175.542z"/>
	<path fill="none" stroke="#2E3191" stroke-width="3" stroke-miterlimit="10" d="M210.659,287.927l-1.569,1.851l-1.16,0.141
		l-2.158,0.646l-0.664,0.826l-2.995,1.325l-2.326,0.497l-0.998,0.333l-1.827,0.666l-1.995,0.476c0,0-0.329-0.188-1.163-0.188
		c-0.831,0-3.494,0-3.494,0l-0.999,0.516c0,0,1.331-0.151-1.664,1.013c-2.994,1.163-2.994,1.253-2.994,1.253l-1.993,0.363
		l-2.497-0.146h-0.994l-1.163,0.185l-0.999,0.845l-2.162,0.833c0,0,1.334-0.831-1.493,0.501c-2.828,1.332-1.003,0.5-1.003,0.5
		l-1.825,0.834l-2.496,0.664l-2.491,0.495c0,0,4.156-0.168-1.164,0.17c-5.326,0.337-3.328-1.682-3.328-1.682l-1.998-1.346h-2.16
		l-2.829,2.51l-0.664,0.674l-1.998-0.246l-2.659-1.223l-1.496-1.716h-2.907h-3.245h-1.998l-0.165,0.366c0,0-1.161,0.168-2.161,0.003
		c-0.998-0.171-1.829,0.079-1.829,0.079l-1.83-0.873l-3.488-1.434l-4.16-2.793c0,0-0.831-1.324-1.33-1.324
		c-0.501,0-2.661-1.15-2.661-1.15l-2.823-0.598l-0.668-0.276h-2.825l-0.835,0.606l-2.327,0.556c0,0-0.168,0.517-0.834,0.026
		c-0.662-0.504-0.662-0.488-0.662-0.488l-1.997-1.16l-1.997-1.495l-0.996-2.155l-0.33-1.656l-2.333-1.172
		c0,0-1.825-1.326-2.328-1.326c-0.497,0-2.824-0.997-2.824-0.997l-0.998-1.5l-4.158-2.159l-2.662-1.997l-1.159-2.66l-4.494-1.666
		l-1.828-1.998l-1.33-0.827l-2.326-2.502c0,0-1.829-3.149-2.33-3.32c-0.499-0.164-2.161-1.996-2.161-1.996s0.332-0.666-0.665-0.999
		c-0.998-0.337-3.659-1.661-3.659-1.661l-3.157-1.827l-2.164-0.669l-1.995-0.334c-1.163-0.497-2.164-2.154-2.164-2.154
		s-1.329-0.834-1.994-1.333c-0.664-0.501-1.164-3.164-1.164-3.164l-1-2.663l-0.83-1.156l-2.494-2.328l-0.996-2.665l-0.332-2.825
		c0,0-0.831-0.337-1.163-1.498c-0.333-1.167-1.666-3.658-1.666-3.658l-1.164-2.824l-0.165-1.5l0.332-2.162l-1.163-2.994
		c0,0-0.17-1.329-0.665-1.664c-0.499-0.334-0.499-0.334-0.499-0.334l-2.164-1.657l-1.329-2.161c0,0-1.001-2.002-1.001-2.496
		c0-0.5-0.994-1.5-0.994-2.162c0-0.668-0.336-1.998-0.336-1.998s-0.162-1-0.498-1.992c-0.33-1.002,0.345-1.666,0.345-1.666
		l-0.979-2.83v-2.988l-1.345-2.496c0,0-0.504,2.162-0.339-1.333c0.167-3.487-0.506-0.329-0.004-2.661
		c0.498-2.324-0.084-0.828-0.084-0.828l0.455-1.498l0.479-2.66l0.334-0.996l0.505-3.157c0,0,0-2.667,0-3.166
		c0-0.501-0.35-3.326-0.35-3.326l-0.417-1.166l-1.881-1.493c-0.166-2.827-0.518-2.164-0.518-2.164l0.496-0.663l0.668-1.334v-1.161
		l-0.347-2.164l1.074-1.998l0.622-1.83l0.312-0.996l1.482-1.333l0.329-1.826l0.663-3.653l0.501-2.668c0,0,0.934-0.329,1.598-0.499
		c0.668-0.165,2.767-1.496,2.767-2.326c0-0.835,0-1.418,0-1.418l-2.456-2.576c0,0-0.955-0.33-0.456-0.83
		c0.498-0.499,0.77-1.663,0.77-1.663s0.817,0,1.152-0.832c0.333-0.833,0.989-2.821,0.989-2.821v-0.753l-0.752-2.243l0.937-2.161
		l0.964-3.829l-0.262-2.496c0,0-0.451-2.327-0.621-2.826c-0.159-0.5-0.267-2.327-0.267-2.327s0-1.498,0-1.998
		c0-0.499,0-1.996,0-1.996l0.92-1.163l3.08-2.661v-0.832l-0.032-0.498l0.65-3.159c0,0,2.492-0.5,2.66-1.333
		c0.164-0.833-0.587-1.832,0.246-1.998c0.835-0.165,2.115-0.831,2.115-0.831l1.146-0.333c0,0,0.658-0.497,1.156-0.999
		c0.499-0.499,1.441-1.16,1.441-1.16l1.616-1.166v-3.909l1.436-2.081l2.487-3.988l2.326-2.828l0.912-0.663l4.281-1.331l1.811-0.502
		l0.984-1.993c0,0,1.489-1.667,1.659-2.166c0.166-0.494,0.994-4.154,0.994-4.154l3.657-2.496c0,0-0.833-0.165,0.163-0.665
		c0.998-0.499,1.662-0.997,1.662-0.997l1.998-2.33l6.317-0.995l1.829-2.329l0.332-0.831c0,0,0.997-1.167,1.499-1.504
		c0.499-0.33,1.493-0.658,1.493-0.658l2.999,0.996c0,0,2.322-1.495,2.824-1.666c0.498-0.161,2.496-1.493,2.995-1.655
		c0.499-0.171,0.499-0.502,1.163-0.502c0.665,0,2.496-0.497,2.496-0.497c1.662,0.329,2.655,0.497,2.655,0.497l1.001-0.168
		l3.491-1.164l2.163-2.658l1.33,1.16l0.665,0.334l2.824-0.663l1.001-1.499l1.995-1.996c0,0,1.495-1.328,2.325-1.328
		c0.831,0,2.327-0.169,2.327-0.169l1.333-0.999l2.994-0.33l2.164-3.158l2.49-0.999l1.669-0.337l1.534-2.336
		c4.324-1.168,12.371-3.825,12.371-3.825l3.191,2.964l4.354,2.959h2.83l1.659-2.307l3.487-1.308l1.001,0.268
		c0,0,0.665,0.458,1.332,0.626c0.665,0.167-0.335,0.407,1.331,0.235c1.661-0.169,3.157-0.551,3.157-0.551s-0.828-0.857,0.669-0.025
		c1.492,0.83,2.824,1.813,2.824,1.813l3.498-0.169l1.657,2.292c2.829,1.164,4.158,4.125,4.158,4.125c1.659,0,2.331,0,2.995,0
		c0.662,0,1.493-1.796,1.493-1.796l1.498,0.257l0.831-0.197l1.081,1.147l0.997,0.199l0.502,0.517l0.911,0.464l0.502,0.733
		l0.415,1.322l1.33,0.83l0.332,0.492c0.25,0.583,1.581,1.083,1.581,1.083l2.41,2.074l2.58,0.583l0.661,0.167l0.336,0.165l0.332-0.73
		l2.161-0.313h0.418l1.164,0.706L217,66.458l1.25,1.025h2.164l1.241-0.002l1.169-0.15l1.91,0.842l0.582,0.258l1.333,0.959
		c0,0,0.747-0.034,0.997,0.125c0.249,0.172,0.415-0.032,0.914-0.032c0.498,0,0.498,0,0.498,0s0.332,0.097,0.665,0.682
		c0.332,0.585,0.332,0.708,0.332,0.708l0.915,0.826l0.75,0.78l1.084,0.765L233.633,74l0.25,1.167l0.162,1.162l0.752,0.424
		l0.162,0.496l1.166,1.914l1.995,1.079l0.917-0.169l0.661,0.419l0.503,0.164l1.246,0.583l1.08,0.413l0.834,0.172l0.665,0.416
		l0.662,0.578c0,0,0.085,0.166,0.415,0.331c0.335,0.167,0.917,0.417,0.917,0.417l0.329,0.335l2.167,1.407l2.078,2.082l0.415,0.33
		l2.497,1.417l0.914,0.498l0.582,0.334l0.913,1.246l0.416,0.834l0.585,1.33l0.994,0.502l1.159,0.661l0.834,0.582l0.502,0.417
		c0.167,0.747,0,0.168,0.167,0.747c0.162,0.583,0.162,0.583,0.162,0.583l0.918,0.665l1.575,0.499c0,0,0.086-0.414,0.336,0.337
		c0.249,0.747,0.082,0.326,0.249,0.747c0.167,0.414,0.167,0.414,0.167,0.414l-0.167,1.332l-0.249,0.659l-0.167,1.252l0.583,0.915
		l0.331,0.416l1.001,1.58l0.5,1.58l0.577,0.83l0.221,0.663l0.891,1.253v0.745l0.755,0.748l-0.624,0.999l-0.131,1.915v1.329
		l1.382,1.493l0.872,1.748l1.188,1.163l0.714,0.998l0.734,0.829c0,0,0.203,0.75,0.203,0.999c0,0.252,0.429,1.498,0.429,1.498
		l0.181,0.919l0.751,1.658l0.42,0.253l0.397,0.5l0.729,1.409v1.501l0.415,0.911l0.517,1.413l0.431,1.166l-0.12,1.163l-0.186,1.083
		l0.238,2.078l0.08,2.077c0,0,0.744,0.838,0.997,1.169c0.249,0.333,1.156,1.913,1.156,1.913l0.822,0.667l0.648,1.328v0.502
		l-0.175,0.584l0.146,0.328l0.108,1.579l0.434,0.831l0.963,0.584l0.563,1.83l1.656,1.413l1.161,1.245l0.08,1.661l0.246,1.417
		l0.165,0.831l0.5,0.832l-0.38,0.582l-0.469,1.416v0.582l0.777,1.659l0.95,1.752c0,0,0.226,0.575,0.226,0.827
		c0,0.253-0.145,0.836-0.145,0.836l0.19,1.745v0.747c0,0,0.214,0.249,0.05,0.747c-0.17,0.503,1.427,1.163,1.427,1.163l0.517,0.915
		l0.676,1.583l0.17,1.327l-0.58,1.083l-0.917,1.498l-1.331,0.08l-0.412,1.087l-0.832,0.992l-1.164,0.504l-0.333,1.162l-0.332,1.164
		l-0.176,0.914l1.239,1.248v1.168v1.912v1.832l0.321,2.324l-0.278,1.908l-0.139,2.083l-0.105,1.905l0.522,0.835l-0.484,1.661
		l-0.906,1l-0.33,2.082l-0.498,1.828l-0.834,0.834l-1.407,0.662l-0.331,1.413l-0.504,1.331l-0.332,1.911l0.914,0.585l0.167,0.329
		l-0.083,1.081l-0.412,0.417l-0.672,1.419l-1.242,1.414l-1.33,1.408l-1.578,1.75l-0.752,1.412l-0.661,1.746l-0.416,1.084
		l-0.917,1.578l-0.33,0.334l-0.75,0.75l-0.917,0.414c0,0-0.416,0.577-0.579,0.916c-0.169,0.332-1.001,1.327-1.001,1.327
		s-0.332,0.423-0.661,0.831c-0.335,0.414-1.084,0.835-1.084,1.083c0,0.249-1.001,2.496-1.001,2.496l-0.411,2.327l-1.251,0.913
		l-0.914,1.749l-0.997,1.494l-0.996,1.83l-0.416,0.334c0,0-0.086,0.248-0.665,0.33c-0.585,0.08-1.664,0.748-1.664,0.748l-0.582,1
		l-0.412,1.248l-0.086,0.664c0,0,0,0.665-0.167,0.913c-0.166,0.25-0.664,0.334-0.664,0.334l-2.043,0.5
		c-0.416,0.494-3.118,1.328-3.118,1.328v0.916v0.333l1.21,1.248l0.353,0.911l0.056,0.252l-0.805,0.913l-1.15,0.755l-1.033,0.829
		l-0.646,1.25l0.019,1.576v0.25l-2.677,1.246l-0.401,0.914c0,0,0.252,0.17,0.089,0.578c-0.166,0.42-0.573,0.92-0.573,0.92
		l-1.129,0.664c-0.412,0.504-1.183,1.084-1.183,1.084l-2.337,2.909l-1.421,1.577l-0.085,1.413l-1.665,1.915
		c0,0,0.083,0.666-0.167,0.911c-0.248,0.255-0.331,0.754-0.331,0.754l-0.668,0.911c0,0-0.249-0.165-0.495,0.502
		c-0.253,0.664-0.415,0.829-0.584,1.164c-0.167,0.329-0.25,0.912-0.583,0.999c-0.332,0.081-0.997,0.581-1.163,0.827
		c-0.17,0.25-0.914,0.834-0.914,0.834l-0.662,0.496l-0.834,0.668l-1.499,0.662c-0.748,0.252-1.329,0.666-1.329,0.666
		s-0.084-0.08-0.583,0.582c-0.497,0.662-0.497,0.662-0.497,0.662s0.58-0.162-0.749,0.502c-1.33,0.666-1.33,0.666-1.33,0.666
		s0.081,0.252-0.502,0.502c-0.581,0.244-0.831-0.746-1.242-0.49c-0.415,0.242-1.498-0.493-1.498-0.493h-1.334h-0.499h-0.992h-1.251
		l-1.827,1.407l-1.749-0.74l-1.576-0.667h-0.582c0,0-1.162,2.584-2.084,2.756c-0.91,0.163-0.91,0.853-0.91,0.853"/>
	<circle fill="#2E3191" cx="162.827" cy="175.836" r="24.568"/>
</g>
</svg>
