<?xml version="1.0" encoding="utf-8"?>
<!-- Generator: Adobe Illustrator 16.0.0, SVG Export Plug-In . SVG Version: 6.00 Build 0)  -->
<!DOCTYPE svg PUBLIC "-//W3C//DTD SVG 1.1//EN" "http://www.w3.org/Graphics/SVG/1.1/DTD/svg11.dtd">
<svg version="1.1" xmlns="http://www.w3.org/2000/svg" xmlns:xlink="http://www.w3.org/1999/xlink" x="0px" y="0px" width="203px"
	 height="185px" viewBox="0 0 203 185" enable-background="new 0 0 203 185" xml:space="preserve">
<g id="text">
</g>
<g id="Layer_1">
	<g>
		<g>
			<g>
				<g>
					<g>
						<g>
							<polygon fill="none" stroke="#2E3191" stroke-width="0.5956" stroke-miterlimit="10" points="23.527,158.003 28.319,157.995 
								33.043,157.989 30.738,153.966 28.323,149.735 25.869,153.964 							"/>
							<polygon fill="none" stroke="#2E3191" stroke-width="0.5956" stroke-miterlimit="10" points="26.113,153.976 30.515,153.972 
								28.319,157.731 							"/>
						</g>
						<g>
							<polygon fill="none" stroke="#2E3191" stroke-width="0.5956" stroke-miterlimit="10" points="33.221,158.003 38.012,157.995 
								42.736,157.989 40.434,153.966 38.016,149.735 35.563,153.964 							"/>
							<polygon fill="none" stroke="#2E3191" stroke-width="0.5956" stroke-miterlimit="10" points="35.807,153.976 40.208,153.972 
								38.012,157.731 							"/>
						</g>
						<g>
							<polygon fill="none" stroke="#2E3191" stroke-width="0.5956" stroke-miterlimit="10" points="28.439,149.522 33.195,149.516 
								37.889,149.509 35.6,145.513 33.203,141.313 30.766,145.511 							"/>
							<polygon fill="none" stroke="#2E3191" stroke-width="0.5956" stroke-miterlimit="10" points="31.011,145.524 35.377,145.519 
								33.195,149.252 							"/>
						</g>
					</g>
					<g>
						<g>
							<polygon fill="none" stroke="#2E3191" stroke-width="0.5956" stroke-miterlimit="10" points="42.914,158.003 47.705,157.995 
								52.43,157.989 50.127,153.966 47.708,149.735 45.258,153.964 							"/>
							<polygon fill="none" stroke="#2E3191" stroke-width="0.5956" stroke-miterlimit="10" points="45.498,153.976 49.9,153.972 
								47.705,157.731 							"/>
						</g>
						<g>
							<polygon fill="none" stroke="#2E3191" stroke-width="0.5956" stroke-miterlimit="10" points="52.603,158.003 57.398,157.995 
								62.119,157.989 59.82,153.966 57.401,149.735 54.947,153.964 							"/>
							<polygon fill="none" stroke="#2E3191" stroke-width="0.5956" stroke-miterlimit="10" points="55.191,153.976 59.594,153.972 
								57.398,157.731 							"/>
						</g>
						<g>
							<polygon fill="none" stroke="#2E3191" stroke-width="0.5956" stroke-miterlimit="10" points="47.826,149.522 52.586,149.516 
								57.273,149.509 54.99,145.513 52.588,141.313 50.152,145.511 							"/>
							<polygon fill="none" stroke="#2E3191" stroke-width="0.5956" stroke-miterlimit="10" points="50.393,145.524 54.764,145.519 
								52.586,149.252 							"/>
						</g>
					</g>
					<g>
						<g>
							<polygon fill="none" stroke="#2E3191" stroke-width="0.5956" stroke-miterlimit="10" points="33.341,140.906 38.09,140.9 
								42.779,140.895 40.494,136.901 38.098,132.707 35.664,136.9 							"/>
							<polygon fill="none" stroke="#2E3191" stroke-width="0.5956" stroke-miterlimit="10" points="35.904,136.913 40.271,136.908 
								38.09,140.636 							"/>
						</g>
						<g>
							<polygon fill="none" stroke="#2E3191" stroke-width="0.5956" stroke-miterlimit="10" points="42.953,140.906 47.708,140.9 
								52.394,140.895 50.109,136.901 47.712,132.707 45.275,136.9 							"/>
							<polygon fill="none" stroke="#2E3191" stroke-width="0.5956" stroke-miterlimit="10" points="45.52,136.913 49.887,136.908 
								47.708,140.636 							"/>
						</g>
						<g>
							<polygon fill="none" stroke="#2E3191" stroke-width="0.5956" stroke-miterlimit="10" points="38.214,132.493 42.932,132.487 
								47.584,132.479 45.318,128.517 42.935,124.353 40.52,128.517 							"/>
							<polygon fill="none" stroke="#2E3191" stroke-width="0.5956" stroke-miterlimit="10" points="40.76,128.527 45.096,128.522 
								42.932,132.226 							"/>
						</g>
					</g>
				</g>
				<g>
					<g>
						<g>
							<polygon fill="none" stroke="#2E3191" stroke-width="0.5956" stroke-miterlimit="10" points="62.295,158.003 67.091,157.995 
								71.812,157.989 69.514,153.966 67.094,149.735 64.641,153.964 							"/>
							<polygon fill="none" stroke="#2E3191" stroke-width="0.5956" stroke-miterlimit="10" points="64.885,153.976 69.286,153.972 
								67.091,157.731 							"/>
						</g>
						<g>
							<polygon fill="none" stroke="#2E3191" stroke-width="0.5956" stroke-miterlimit="10" points="71.988,158.003 76.783,157.995 
								81.508,157.989 79.206,153.966 76.787,149.735 74.333,153.964 							"/>
							<polygon fill="none" stroke="#2E3191" stroke-width="0.5956" stroke-miterlimit="10" points="74.577,153.976 78.977,153.972 
								76.783,157.731 							"/>
						</g>
						<g>
							<polygon fill="none" stroke="#2E3191" stroke-width="0.5956" stroke-miterlimit="10" points="67.211,149.522 71.971,149.516 
								76.66,149.509 74.375,145.513 71.975,141.313 69.538,145.511 							"/>
							<polygon fill="none" stroke="#2E3191" stroke-width="0.5956" stroke-miterlimit="10" points="69.779,145.524 74.148,145.519 
								71.971,149.252 							"/>
						</g>
					</g>
					<g>
						<g>
							<polygon fill="none" stroke="#2E3191" stroke-width="0.5956" stroke-miterlimit="10" points="81.682,158.003 86.473,157.995 
								91.197,157.989 88.898,153.966 86.48,149.735 84.025,153.964 							"/>
							<polygon fill="none" stroke="#2E3191" stroke-width="0.5956" stroke-miterlimit="10" points="84.271,153.976 88.672,153.972 
								86.473,157.731 							"/>
						</g>
						<g>
							<polygon fill="none" stroke="#2E3191" stroke-width="0.5956" stroke-miterlimit="10" points="91.379,158.003 96.166,157.995 
								100.89,157.989 98.592,153.966 96.173,149.735 93.719,153.964 							"/>
							<polygon fill="none" stroke="#2E3191" stroke-width="0.5956" stroke-miterlimit="10" points="93.963,153.976 98.365,153.972 
								96.166,157.731 							"/>
						</g>
						<g>
							<polygon fill="none" stroke="#2E3191" stroke-width="0.5956" stroke-miterlimit="10" points="86.597,149.522 91.354,149.516 
								96.045,149.509 93.762,145.513 91.356,141.313 88.924,145.511 							"/>
							<polygon fill="none" stroke="#2E3191" stroke-width="0.5956" stroke-miterlimit="10" points="89.164,145.524 93.535,145.519 
								91.354,149.252 							"/>
						</g>
					</g>
					<g>
						<g>
							<polygon fill="none" stroke="#2E3191" stroke-width="0.5956" stroke-miterlimit="10" points="72.109,140.906 76.861,140.9 
								81.547,140.895 79.267,136.901 76.865,132.707 74.433,136.9 							"/>
							<polygon fill="none" stroke="#2E3191" stroke-width="0.5956" stroke-miterlimit="10" points="74.677,136.913 79.039,136.908 
								76.861,140.636 							"/>
						</g>
						<g>
							<polygon fill="none" stroke="#2E3191" stroke-width="0.5956" stroke-miterlimit="10" points="81.724,140.906 86.477,140.9 
								91.162,140.895 88.881,136.901 86.48,132.707 84.047,136.9 							"/>
							<polygon fill="none" stroke="#2E3191" stroke-width="0.5956" stroke-miterlimit="10" points="84.291,136.913 88.654,136.908 
								86.477,140.636 							"/>
						</g>
						<g>
							<polygon fill="none" stroke="#2E3191" stroke-width="0.5956" stroke-miterlimit="10" points="76.982,132.493 81.703,132.487 
								86.356,132.479 84.086,128.517 81.707,124.353 79.291,128.517 							"/>
							<polygon fill="none" stroke="#2E3191" stroke-width="0.5956" stroke-miterlimit="10" points="79.527,128.527 83.863,128.522 
								81.703,132.226 							"/>
						</g>
					</g>
				</g>
				<g>
					<g>
						<g>
							<polygon fill="none" stroke="#2E3191" stroke-width="0.5956" stroke-miterlimit="10" points="43.027,124.081 47.814,124.074 
								52.542,124.067 50.24,120.043 47.822,115.813 45.367,120.041 							"/>
							<polygon fill="none" stroke="#2E3191" stroke-width="0.5956" stroke-miterlimit="10" points="45.611,120.056 50.015,120.048 
								47.814,123.808 							"/>
						</g>
						<g>
							<polygon fill="none" stroke="#2E3191" stroke-width="0.5956" stroke-miterlimit="10" points="52.72,124.081 57.512,124.074 
								62.235,124.067 59.938,120.043 57.515,115.813 55.063,120.041 							"/>
							<polygon fill="none" stroke="#2E3191" stroke-width="0.5956" stroke-miterlimit="10" points="55.309,120.056 59.707,120.048 
								57.512,123.808 							"/>
						</g>
						<g>
							<polygon fill="none" stroke="#2E3191" stroke-width="0.5956" stroke-miterlimit="10" points="47.938,115.597 52.699,115.593 
								57.387,115.587 55.104,111.589 52.702,107.39 50.266,111.588 							"/>
							<polygon fill="none" stroke="#2E3191" stroke-width="0.5956" stroke-miterlimit="10" points="50.51,111.601 54.88,111.596 
								52.699,115.328 							"/>
						</g>
					</g>
					<g>
						<g>
							<polygon fill="none" stroke="#2E3191" stroke-width="0.5956" stroke-miterlimit="10" points="62.412,124.081 67.203,124.074 
								71.928,124.067 69.627,120.043 67.211,115.813 64.757,120.041 							"/>
							<polygon fill="none" stroke="#2E3191" stroke-width="0.5956" stroke-miterlimit="10" points="64.998,120.056 69.399,120.048 
								67.203,123.808 							"/>
						</g>
						<g>
							<polygon fill="none" stroke="#2E3191" stroke-width="0.5956" stroke-miterlimit="10" points="72.105,124.081 76.896,124.074 
								81.621,124.067 79.322,120.043 76.9,115.813 74.449,120.041 							"/>
							<polygon fill="none" stroke="#2E3191" stroke-width="0.5956" stroke-miterlimit="10" points="74.693,120.056 79.097,120.048 
								76.896,123.808 							"/>
						</g>
						<g>
							<polygon fill="none" stroke="#2E3191" stroke-width="0.5956" stroke-miterlimit="10" points="67.328,115.597 72.084,115.593 
								76.777,115.587 74.488,111.589 72.088,107.39 69.65,111.588 							"/>
							<polygon fill="none" stroke="#2E3191" stroke-width="0.5956" stroke-miterlimit="10" points="69.893,111.601 74.266,111.596 
								72.084,115.328 							"/>
						</g>
					</g>
					<g>
						<g>
							<polygon fill="none" stroke="#2E3191" stroke-width="0.5956" stroke-miterlimit="10" points="52.84,106.981 57.589,106.976 
								62.278,106.972 59.994,102.979 57.596,98.782 55.163,102.977 							"/>
							<polygon fill="none" stroke="#2E3191" stroke-width="0.5956" stroke-miterlimit="10" points="55.404,102.989 59.771,102.983 
								57.589,106.712 							"/>
						</g>
						<g>
							<polygon fill="none" stroke="#2E3191" stroke-width="0.5956" stroke-miterlimit="10" points="62.451,106.981 67.208,106.976 
								71.893,106.972 69.613,102.979 67.211,98.782 64.779,102.977 							"/>
							<polygon fill="none" stroke="#2E3191" stroke-width="0.5956" stroke-miterlimit="10" points="65.02,102.989 69.386,102.983 
								67.208,106.712 							"/>
						</g>
						<g>
							<polygon fill="none" stroke="#2E3191" stroke-width="0.5956" stroke-miterlimit="10" points="57.713,98.569 62.43,98.563 
								67.087,98.557 64.82,94.593 62.438,90.427 60.018,94.591 							"/>
							<polygon fill="none" stroke="#2E3191" stroke-width="0.5956" stroke-miterlimit="10" points="60.263,94.603 64.594,94.597 
								62.43,98.302 							"/>
						</g>
					</g>
				</g>
			</g>
			<g>
				<g>
					<g>
						<g>
							<polygon fill="none" stroke="#2E3191" stroke-width="0.5956" stroke-miterlimit="10" points="101.066,158.003 
								105.859,157.995 110.587,157.989 108.28,153.966 105.865,149.735 103.411,153.964 							"/>
							<polygon fill="none" stroke="#2E3191" stroke-width="0.5956" stroke-miterlimit="10" points="103.655,153.976 
								108.058,153.972 105.859,157.731 							"/>
						</g>
						<g>
							<polygon fill="none" stroke="#2E3191" stroke-width="0.5956" stroke-miterlimit="10" points="110.76,158.003 
								115.552,157.995 120.275,157.989 117.979,153.966 115.556,149.735 113.101,153.964 							"/>
							<polygon fill="none" stroke="#2E3191" stroke-width="0.5956" stroke-miterlimit="10" points="113.349,153.976 
								117.748,153.972 115.552,157.731 							"/>
						</g>
						<g>
							<polygon fill="none" stroke="#2E3191" stroke-width="0.5956" stroke-miterlimit="10" points="105.983,149.522 
								110.739,149.516 115.432,149.509 113.144,145.513 110.742,141.313 108.311,145.511 							"/>
							<polygon fill="none" stroke="#2E3191" stroke-width="0.5956" stroke-miterlimit="10" points="108.55,145.524 
								112.921,145.519 110.739,149.252 							"/>
						</g>
					</g>
					<g>
						<g>
							<polygon fill="none" stroke="#2E3191" stroke-width="0.5956" stroke-miterlimit="10" points="120.452,158.003 
								125.245,157.995 129.972,157.989 127.671,153.966 125.248,149.735 122.797,153.964 							"/>
							<polygon fill="none" stroke="#2E3191" stroke-width="0.5956" stroke-miterlimit="10" points="123.042,153.976 
								127.44,153.972 125.245,157.731 							"/>
						</g>
						<g>
							<polygon fill="none" stroke="#2E3191" stroke-width="0.5956" stroke-miterlimit="10" points="130.146,158.003 
								134.941,157.995 139.661,157.989 137.359,153.966 134.941,149.735 132.49,153.964 							"/>
							<polygon fill="none" stroke="#2E3191" stroke-width="0.5956" stroke-miterlimit="10" points="132.731,153.976 
								137.134,153.972 134.941,157.731 							"/>
						</g>
						<g>
							<polygon fill="none" stroke="#2E3191" stroke-width="0.5956" stroke-miterlimit="10" points="125.369,149.522 
								130.125,149.516 134.817,149.509 132.529,145.513 130.132,141.313 127.691,145.511 							"/>
							<polygon fill="none" stroke="#2E3191" stroke-width="0.5956" stroke-miterlimit="10" points="127.936,145.524 
								132.307,145.519 130.125,149.252 							"/>
						</g>
					</g>
					<g>
						<g>
							<polygon fill="none" stroke="#2E3191" stroke-width="0.5956" stroke-miterlimit="10" points="110.88,140.906 115.629,140.9 
								120.318,140.895 118.038,136.901 115.637,132.707 113.204,136.9 							"/>
							<polygon fill="none" stroke="#2E3191" stroke-width="0.5956" stroke-miterlimit="10" points="113.448,136.913 
								117.811,136.908 115.629,140.636 							"/>
						</g>
						<g>
							<polygon fill="none" stroke="#2E3191" stroke-width="0.5956" stroke-miterlimit="10" points="120.492,140.906 125.248,140.9 
								129.935,140.895 127.649,136.901 125.248,132.707 122.819,136.9 							"/>
							<polygon fill="none" stroke="#2E3191" stroke-width="0.5956" stroke-miterlimit="10" points="123.061,136.913 
								127.427,136.908 125.248,140.636 							"/>
						</g>
						<g>
							<polygon fill="none" stroke="#2E3191" stroke-width="0.5956" stroke-miterlimit="10" points="115.754,132.493 
								120.475,132.487 125.124,132.479 122.861,128.517 120.478,124.353 118.063,128.517 							"/>
							<polygon fill="none" stroke="#2E3191" stroke-width="0.5956" stroke-miterlimit="10" points="118.304,128.527 
								122.639,128.522 120.475,132.226 							"/>
						</g>
					</g>
				</g>
				<g>
					<g>
						<g>
							<polygon fill="none" stroke="#2E3191" stroke-width="0.5956" stroke-miterlimit="10" points="139.839,158.003 
								144.631,157.995 149.354,157.989 147.053,153.966 144.634,149.735 142.184,153.964 							"/>
							<polygon fill="none" stroke="#2E3191" stroke-width="0.5956" stroke-miterlimit="10" points="142.425,153.976 
								146.827,153.972 144.631,157.731 							"/>
						</g>
						<g>
							<polygon fill="none" stroke="#2E3191" stroke-width="0.5956" stroke-miterlimit="10" points="149.531,158.003 
								154.324,157.995 159.048,157.989 156.745,153.966 154.327,149.735 151.876,153.964 							"/>
							<polygon fill="none" stroke="#2E3191" stroke-width="0.5956" stroke-miterlimit="10" points="152.12,153.976 
								156.519,153.972 154.324,157.731 							"/>
						</g>
						<g>
							<polygon fill="none" stroke="#2E3191" stroke-width="0.5956" stroke-miterlimit="10" points="144.75,149.522 
								149.511,149.516 154.199,149.509 151.915,145.513 149.515,141.313 147.077,145.511 							"/>
							<polygon fill="none" stroke="#2E3191" stroke-width="0.5956" stroke-miterlimit="10" points="147.321,145.524 
								151.691,145.519 149.511,149.252 							"/>
						</g>
					</g>
					<g>
						<g>
							<polygon fill="none" stroke="#2E3191" stroke-width="0.5956" stroke-miterlimit="10" points="159.225,158.003 
								164.017,157.995 168.74,157.989 166.438,153.966 164.021,149.735 161.566,153.964 							"/>
							<polygon fill="none" stroke="#2E3191" stroke-width="0.5956" stroke-miterlimit="10" points="161.811,153.976 
								166.211,153.972 164.017,157.731 							"/>
						</g>
						<g>
							<polygon fill="none" stroke="#2E3191" stroke-width="0.5956" stroke-miterlimit="10" points="168.915,158.003 
								173.708,157.995 178.434,157.989 176.132,153.966 173.713,149.735 171.263,153.964 							"/>
							<polygon fill="none" stroke="#2E3191" stroke-width="0.5956" stroke-miterlimit="10" points="171.503,153.976 
								175.904,153.972 173.708,157.731 							"/>
						</g>
						<g>
							<polygon fill="none" stroke="#2E3191" stroke-width="0.5956" stroke-miterlimit="10" points="164.136,149.522 
								168.896,149.516 173.59,149.509 171.302,145.513 168.9,141.313 166.464,145.511 							"/>
							<polygon fill="none" stroke="#2E3191" stroke-width="0.5956" stroke-miterlimit="10" points="166.708,145.524 
								171.074,145.519 168.896,149.252 							"/>
						</g>
					</g>
					<g>
						<g>
							<polygon fill="none" stroke="#2E3191" stroke-width="0.5956" stroke-miterlimit="10" points="149.649,140.906 154.405,140.9 
								159.09,140.895 156.807,136.901 154.409,132.707 151.975,136.9 							"/>
							<polygon fill="none" stroke="#2E3191" stroke-width="0.5956" stroke-miterlimit="10" points="152.216,136.913 
								156.583,136.908 154.405,140.636 							"/>
						</g>
						<g>
							<polygon fill="none" stroke="#2E3191" stroke-width="0.5956" stroke-miterlimit="10" points="159.264,140.906 164.017,140.9 
								168.701,140.895 166.421,136.901 164.023,132.707 161.587,136.9 							"/>
							<polygon fill="none" stroke="#2E3191" stroke-width="0.5956" stroke-miterlimit="10" points="161.831,136.913 
								166.197,136.908 164.017,140.636 							"/>
						</g>
						<g>
							<polygon fill="none" stroke="#2E3191" stroke-width="0.5956" stroke-miterlimit="10" points="154.524,132.493 
								159.247,132.487 163.896,132.479 161.629,128.517 159.247,124.353 156.831,128.517 							"/>
							<polygon fill="none" stroke="#2E3191" stroke-width="0.5956" stroke-miterlimit="10" points="157.071,128.527 
								161.406,128.522 159.247,132.226 							"/>
						</g>
					</g>
				</g>
				<g>
					<g>
						<g>
							<polygon fill="none" stroke="#2E3191" stroke-width="0.5956" stroke-miterlimit="10" points="120.57,124.081 
								125.358,124.074 130.083,124.067 127.784,120.043 125.366,115.813 122.911,120.041 							"/>
							<polygon fill="none" stroke="#2E3191" stroke-width="0.5956" stroke-miterlimit="10" points="123.156,120.056 
								127.557,120.048 125.358,123.808 							"/>
						</g>
						<g>
							<polygon fill="none" stroke="#2E3191" stroke-width="0.5956" stroke-miterlimit="10" points="130.26,124.081 
								135.054,124.074 139.776,124.067 137.477,120.043 135.054,115.813 132.603,120.041 							"/>
							<polygon fill="none" stroke="#2E3191" stroke-width="0.5956" stroke-miterlimit="10" points="132.849,120.056 
								137.25,120.048 135.054,123.808 							"/>
						</g>
						<g>
							<polygon fill="none" stroke="#2E3191" stroke-width="0.5956" stroke-miterlimit="10" points="125.481,115.597 
								130.238,115.593 134.931,115.587 132.642,111.589 130.246,107.39 127.809,111.588 							"/>
							<polygon fill="none" stroke="#2E3191" stroke-width="0.5956" stroke-miterlimit="10" points="128.05,111.601 132.42,111.596 
								130.238,115.328 							"/>
						</g>
					</g>
					<g>
						<g>
							<polygon fill="none" stroke="#2E3191" stroke-width="0.5956" stroke-miterlimit="10" points="139.953,124.081 
								144.747,124.074 149.468,124.067 147.17,120.043 144.747,115.813 142.298,120.041 							"/>
							<polygon fill="none" stroke="#2E3191" stroke-width="0.5956" stroke-miterlimit="10" points="142.542,120.056 
								146.942,120.048 144.747,123.808 							"/>
						</g>
						<g>
							<polygon fill="none" stroke="#2E3191" stroke-width="0.5956" stroke-miterlimit="10" points="149.646,124.081 
								154.44,124.074 159.165,124.067 156.863,120.043 154.443,115.813 151.989,120.041 							"/>
							<polygon fill="none" stroke="#2E3191" stroke-width="0.5956" stroke-miterlimit="10" points="152.233,120.056 
								156.636,120.048 154.44,123.808 							"/>
						</g>
						<g>
							<polygon fill="none" stroke="#2E3191" stroke-width="0.5956" stroke-miterlimit="10" points="144.867,115.597 
								149.624,115.593 154.316,115.587 152.033,111.589 149.63,107.39 147.195,111.588 							"/>
							<polygon fill="none" stroke="#2E3191" stroke-width="0.5956" stroke-miterlimit="10" points="147.435,111.601 
								151.806,111.596 149.624,115.328 							"/>
						</g>
					</g>
					<g>
						<g>
							<polygon fill="none" stroke="#2E3191" stroke-width="0.5956" stroke-miterlimit="10" points="130.379,106.981 
								135.132,106.976 139.818,106.972 137.536,102.979 135.136,98.782 132.703,102.977 							"/>
							<polygon fill="none" stroke="#2E3191" stroke-width="0.5956" stroke-miterlimit="10" points="132.947,102.989 
								137.311,102.983 135.132,106.712 							"/>
						</g>
						<g>
							<polygon fill="none" stroke="#2E3191" stroke-width="0.5956" stroke-miterlimit="10" points="139.995,106.981 
								144.747,106.976 149.433,106.972 147.152,102.979 144.75,98.782 142.317,102.977 							"/>
							<polygon fill="none" stroke="#2E3191" stroke-width="0.5956" stroke-miterlimit="10" points="142.56,102.989 
								146.926,102.983 144.747,106.712 							"/>
						</g>
						<g>
							<polygon fill="none" stroke="#2E3191" stroke-width="0.5956" stroke-miterlimit="10" points="135.253,98.569 139.974,98.563 
								144.626,98.557 142.36,94.593 139.977,90.427 137.562,94.591 							"/>
							<polygon fill="none" stroke="#2E3191" stroke-width="0.5956" stroke-miterlimit="10" points="137.803,94.603 142.133,94.597 
								139.974,98.302 							"/>
						</g>
					</g>
				</g>
			</g>
			<g>
				<g>
					<g>
						<g>
							<polygon fill="none" stroke="#2E3191" stroke-width="0.5956" stroke-miterlimit="10" points="62.583,90.027 67.363,90.022 
								72.081,90.015 69.783,85.999 67.371,81.776 64.924,85.996 							"/>
							<polygon fill="none" stroke="#2E3191" stroke-width="0.5956" stroke-miterlimit="10" points="65.164,86.009 69.556,86.005 
								67.363,89.755 							"/>
						</g>
						<g>
							<polygon fill="none" stroke="#2E3191" stroke-width="0.5956" stroke-miterlimit="10" points="72.258,90.027 77.043,90.022 
								81.756,90.015 79.457,85.999 77.043,81.776 74.596,85.996 							"/>
							<polygon fill="none" stroke="#2E3191" stroke-width="0.5956" stroke-miterlimit="10" points="74.84,86.009 79.231,86.005 
								77.043,89.755 							"/>
						</g>
						<g>
							<polygon fill="none" stroke="#2E3191" stroke-width="0.5956" stroke-miterlimit="10" points="67.487,81.563 72.232,81.556 
								76.918,81.549 74.638,77.562 72.24,73.368 69.807,77.56 							"/>
							<polygon fill="none" stroke="#2E3191" stroke-width="0.5956" stroke-miterlimit="10" points="70.051,77.569 74.41,77.567 
								72.232,81.291 							"/>
						</g>
					</g>
					<g>
						<g>
							<polygon fill="none" stroke="#2E3191" stroke-width="0.5956" stroke-miterlimit="10" points="81.93,90.027 86.711,90.022 
								91.428,90.015 89.133,85.999 86.717,81.776 84.271,85.996 							"/>
							<polygon fill="none" stroke="#2E3191" stroke-width="0.5956" stroke-miterlimit="10" points="84.511,86.009 88.906,86.005 
								86.713,89.755 							"/>
						</g>
						<g>
							<polygon fill="none" stroke="#2E3191" stroke-width="0.5956" stroke-miterlimit="10" points="91.604,90.027 96.389,90.022 
								101.103,90.015 98.809,85.999 96.394,81.776 93.942,85.996 							"/>
							<polygon fill="none" stroke="#2E3191" stroke-width="0.5956" stroke-miterlimit="10" points="94.187,86.009 98.581,86.005 
								96.389,89.755 							"/>
						</g>
						<g>
							<polygon fill="none" stroke="#2E3191" stroke-width="0.5956" stroke-miterlimit="10" points="86.838,81.563 91.584,81.556 
								96.265,81.549 93.984,77.562 91.591,73.368 89.158,77.56 							"/>
							<polygon fill="none" stroke="#2E3191" stroke-width="0.5956" stroke-miterlimit="10" points="89.398,77.569 93.762,77.567 
								91.584,81.291 							"/>
						</g>
					</g>
					<g>
						<g>
							<polygon fill="none" stroke="#2E3191" stroke-width="0.5956" stroke-miterlimit="10" points="72.375,72.962 77.12,72.957 
								81.795,72.952 79.518,68.966 77.124,64.778 74.693,68.965 							"/>
							<polygon fill="none" stroke="#2E3191" stroke-width="0.5956" stroke-miterlimit="10" points="74.936,68.978 79.291,68.973 
								77.12,72.692 							"/>
						</g>
						<g>
							<polygon fill="none" stroke="#2E3191" stroke-width="0.5956" stroke-miterlimit="10" points="81.973,72.962 86.713,72.957 
								91.396,72.952 89.115,68.966 86.721,64.778 84.291,68.965 							"/>
							<polygon fill="none" stroke="#2E3191" stroke-width="0.5956" stroke-miterlimit="10" points="84.535,68.978 88.893,68.973 
								86.713,72.692 							"/>
						</g>
						<g>
							<polygon fill="none" stroke="#2E3191" stroke-width="0.5956" stroke-miterlimit="10" points="77.24,64.565 81.951,64.558 
								86.597,64.554 84.334,60.599 81.954,56.438 79.543,60.599 							"/>
							<polygon fill="none" stroke="#2E3191" stroke-width="0.5956" stroke-miterlimit="10" points="79.783,60.607 84.11,60.603 
								81.951,64.3 							"/>
						</g>
					</g>
				</g>
				<g>
					<g>
						<g>
							<polygon fill="none" stroke="#2E3191" stroke-width="0.5956" stroke-miterlimit="10" points="101.279,90.027 106.062,90.022 
								110.778,90.015 108.482,85.999 106.067,81.776 103.616,85.996 							"/>
							<polygon fill="none" stroke="#2E3191" stroke-width="0.5956" stroke-miterlimit="10" points="103.86,86.009 108.257,86.005 
								106.062,89.755 							"/>
						</g>
						<g>
							<polygon fill="none" stroke="#2E3191" stroke-width="0.5956" stroke-miterlimit="10" points="110.955,90.027 115.735,90.022 
								120.452,90.015 118.155,85.999 115.74,81.776 113.295,85.996 							"/>
							<polygon fill="none" stroke="#2E3191" stroke-width="0.5956" stroke-miterlimit="10" points="113.536,86.009 117.931,86.005 
								115.735,89.755 							"/>
						</g>
						<g>
							<polygon fill="none" stroke="#2E3191" stroke-width="0.5956" stroke-miterlimit="10" points="106.185,81.563 110.934,81.556 
								115.616,81.549 113.335,77.562 110.937,73.368 108.508,77.56 							"/>
							<polygon fill="none" stroke="#2E3191" stroke-width="0.5956" stroke-miterlimit="10" points="108.749,77.569 113.112,77.567 
								110.934,81.291 							"/>
						</g>
					</g>
					<g>
						<g>
							<polygon fill="none" stroke="#2E3191" stroke-width="0.5956" stroke-miterlimit="10" points="120.63,90.027 125.414,90.022 
								130.128,90.015 127.829,85.999 125.414,81.776 122.968,85.996 							"/>
							<polygon fill="none" stroke="#2E3191" stroke-width="0.5956" stroke-miterlimit="10" points="123.212,86.009 127.599,86.005 
								125.414,89.755 							"/>
						</g>
						<g>
							<polygon fill="none" stroke="#2E3191" stroke-width="0.5956" stroke-miterlimit="10" points="130.302,90.027 135.087,90.022 
								139.8,90.015 137.502,85.999 135.09,81.776 132.642,85.996 							"/>
							<polygon fill="none" stroke="#2E3191" stroke-width="0.5956" stroke-miterlimit="10" points="132.884,86.009 137.278,86.005 
								135.087,89.755 							"/>
						</g>
						<g>
							<polygon fill="none" stroke="#2E3191" stroke-width="0.5956" stroke-miterlimit="10" points="125.532,81.563 130.28,81.556 
								134.966,81.549 132.686,77.562 130.288,73.368 127.854,77.56 							"/>
							<polygon fill="none" stroke="#2E3191" stroke-width="0.5956" stroke-miterlimit="10" points="128.099,77.569 132.459,77.567 
								130.28,81.291 							"/>
						</g>
					</g>
					<g>
						<g>
							<polygon fill="none" stroke="#2E3191" stroke-width="0.5956" stroke-miterlimit="10" points="111.071,72.962 115.816,72.957 
								120.492,72.952 118.215,68.966 115.821,64.778 113.391,68.965 							"/>
							<polygon fill="none" stroke="#2E3191" stroke-width="0.5956" stroke-miterlimit="10" points="113.635,68.978 117.992,68.973 
								115.816,72.692 							"/>
						</g>
						<g>
							<polygon fill="none" stroke="#2E3191" stroke-width="0.5956" stroke-miterlimit="10" points="120.669,72.962 125.414,72.957 
								130.089,72.952 127.812,68.966 125.417,64.778 122.988,68.965 							"/>
							<polygon fill="none" stroke="#2E3191" stroke-width="0.5956" stroke-miterlimit="10" points="123.232,68.978 127.59,68.973 
								125.414,72.692 							"/>
						</g>
						<g>
							<polygon fill="none" stroke="#2E3191" stroke-width="0.5956" stroke-miterlimit="10" points="115.938,64.565 120.648,64.558 
								125.29,64.554 123.03,60.599 120.651,56.438 118.239,60.599 							"/>
							<polygon fill="none" stroke="#2E3191" stroke-width="0.5956" stroke-miterlimit="10" points="118.48,60.607 122.805,60.603 
								120.648,64.3 							"/>
						</g>
					</g>
				</g>
				<g>
					<g>
						<g>
							<polygon fill="none" stroke="#2E3191" stroke-width="0.5956" stroke-miterlimit="10" points="82.047,56.169 86.827,56.162 
								91.541,56.155 89.246,52.139 86.831,47.917 84.384,52.138 							"/>
							<polygon fill="none" stroke="#2E3191" stroke-width="0.5956" stroke-miterlimit="10" points="84.628,52.149 89.02,52.146 
								86.827,55.896 							"/>
						</g>
						<g>
							<polygon fill="none" stroke="#2E3191" stroke-width="0.5956" stroke-miterlimit="10" points="91.719,56.169 96.503,56.162 
								101.216,56.155 98.921,52.139 96.506,47.917 94.059,52.138 							"/>
							<polygon fill="none" stroke="#2E3191" stroke-width="0.5956" stroke-miterlimit="10" points="94.304,52.149 98.69,52.146 
								96.503,55.896 							"/>
						</g>
						<g>
							<polygon fill="none" stroke="#2E3191" stroke-width="0.5956" stroke-miterlimit="10" points="86.947,47.706 91.7,47.696 
								96.382,47.69 94.102,43.7 91.704,39.509 89.271,43.7 							"/>
							<polygon fill="none" stroke="#2E3191" stroke-width="0.5956" stroke-miterlimit="10" points="89.512,43.712 93.875,43.707 
								91.7,47.431 							"/>
						</g>
					</g>
					<g>
						<g>
							<polygon fill="none" stroke="#2E3191" stroke-width="0.5956" stroke-miterlimit="10" points="101.397,56.169 106.177,56.162 
								110.895,56.155 108.597,52.139 106.182,47.917 103.733,52.138 							"/>
							<polygon fill="none" stroke="#2E3191" stroke-width="0.5956" stroke-miterlimit="10" points="103.979,52.149 108.37,52.146 
								106.177,55.896 							"/>
						</g>
						<g>
							<polygon fill="none" stroke="#2E3191" stroke-width="0.5956" stroke-miterlimit="10" points="111.068,56.169 115.853,56.162 
								120.57,56.155 118.271,52.139 115.856,47.917 113.409,52.138 							"/>
							<polygon fill="none" stroke="#2E3191" stroke-width="0.5956" stroke-miterlimit="10" points="113.654,52.149 118.046,52.146 
								115.853,55.896 							"/>
						</g>
						<g>
							<polygon fill="none" stroke="#2E3191" stroke-width="0.5956" stroke-miterlimit="10" points="106.298,47.706 111.051,47.696 
								115.729,47.69 113.452,43.7 111.054,39.509 108.622,43.7 							"/>
							<polygon fill="none" stroke="#2E3191" stroke-width="0.5956" stroke-miterlimit="10" points="108.861,43.712 113.225,43.707 
								111.051,47.431 							"/>
						</g>
					</g>
					<g>
						<g>
							<polygon fill="none" stroke="#2E3191" stroke-width="0.5956" stroke-miterlimit="10" points="91.838,39.104 96.584,39.097 
								101.263,39.093 98.982,35.107 96.587,30.919 94.158,35.104 							"/>
							<polygon fill="none" stroke="#2E3191" stroke-width="0.5956" stroke-miterlimit="10" points="94.399,35.118 98.758,35.111 
								96.584,38.833 							"/>
						</g>
						<g>
							<polygon fill="none" stroke="#2E3191" stroke-width="0.5956" stroke-miterlimit="10" points="101.437,39.104 106.182,39.097 
								110.855,39.093 108.578,35.107 106.185,30.919 103.756,35.104 							"/>
							<polygon fill="none" stroke="#2E3191" stroke-width="0.5956" stroke-miterlimit="10" points="103.995,35.118 108.353,35.111 
								106.182,38.833 							"/>
						</g>
						<g>
							<polygon fill="none" stroke="#2E3191" stroke-width="0.5956" stroke-miterlimit="10" points="96.705,30.705 101.414,30.698 
								106.057,30.692 103.798,26.737 101.417,22.578 99.006,26.734 							"/>
							<polygon fill="none" stroke="#2E3191" stroke-width="0.5956" stroke-miterlimit="10" points="99.247,26.747 103.571,26.741 
								101.414,30.437 							"/>
						</g>
					</g>
				</g>
			</g>
		</g>
	</g>
</g>
</svg>
