<?xml version="1.0" encoding="utf-8"?>
<!-- Generator: Adobe Illustrator 16.0.0, SVG Export Plug-In . SVG Version: 6.00 Build 0)  -->
<!DOCTYPE svg PUBLIC "-//W3C//DTD SVG 1.1//EN" "http://www.w3.org/Graphics/SVG/1.1/DTD/svg11.dtd">
<svg version="1.1" id="Layer_1" xmlns="http://www.w3.org/2000/svg" xmlns:xlink="http://www.w3.org/1999/xlink" x="0px" y="0px"
	 width="166px" height="180px" viewBox="0 0 166 180" enable-background="new 0 0 166 180" xml:space="preserve">
<g id="Layer_1_1_">
	<path fill="#2E3191" d="M143.777,160.268H19.125V17.271h124.652V160.268L143.777,160.268z M21.416,157.982h120.068V19.556H21.416
		V157.982z"/>
	<rect x="55.484" y="23.751" fill="#2E3191" width="1.62" height="13.041"/>
	<path fill="#2E3191" d="M61.619,25.407c0.014,0.547-0.388,0.985-1.022,0.985c-0.577,0-0.978-0.438-0.978-0.985
		c0-0.568,0.416-1.013,1.008-1.013C61.231,24.395,61.619,24.839,61.619,25.407 M59.821,27.915h1.62v8.877h-1.62V27.915z"/>
	<path fill="#2E3191" d="M66.063,25.355v2.56h2.316v1.229h-2.316v4.791c0,1.096,0.305,1.717,1.213,1.717
		c0.422,0,0.732-0.043,0.94-0.11l0.072,1.218c-0.316,0.121-0.813,0.225-1.435,0.225c-0.754,0-1.359-0.238-1.746-0.68
		c-0.458-0.482-0.633-1.273-0.633-2.309v-4.852H63.11v-1.229h1.364V25.77L66.063,25.355z"/>
	<path fill="#2E3191" d="M70.182,23.751h1.627v5.547h0.032c0.266-0.457,0.665-0.851,1.152-1.139
		c0.481-0.259,1.058-0.451,1.657-0.451c1.197,0,3.105,0.739,3.105,3.803v5.281h-1.61v-5.106c0-1.417-0.533-2.647-2.059-2.647
		c-1.05,0-1.878,0.741-2.173,1.629c-0.09,0.206-0.105,0.457-0.105,0.754v5.371h-1.627L70.182,23.751L70.182,23.751z"/>
	<path fill="#2E3191" d="M82.18,25.407c0.016,0.547-0.385,0.985-1.036,0.985c-0.562,0-0.978-0.438-0.978-0.985
		c0-0.568,0.431-1.013,1.016-1.013C81.795,24.395,82.18,24.839,82.18,25.407 M80.375,27.915h1.611v8.877h-1.611V27.915z"/>
	<path fill="#2E3191" d="M92.105,34.372c0,0.925,0.021,1.738,0.072,2.42h-1.427l-0.097-1.451h-0.03
		c-0.429,0.725-1.358,1.656-2.94,1.656c-1.397,0-3.063-0.768-3.063-3.905v-5.177h1.611v4.91c0,1.687,0.517,2.826,1.979,2.826
		c1.082,0,1.835-0.748,2.134-1.465c0.088-0.236,0.146-0.533,0.146-0.828v-5.443h1.612v6.457H92.105z"/>
	<path fill="#2E3191" d="M94.783,30.312c0-0.918-0.021-1.672-0.074-2.396h1.413l0.084,1.428h0.041
		c0.503-0.851,1.332-1.635,2.797-1.635c1.213,0,2.13,0.739,2.515,1.776h0.047c0.264-0.49,0.619-0.89,0.988-1.156
		c0.533-0.4,1.118-0.62,1.969-0.62c1.168,0,2.914,0.754,2.914,3.854v5.23h-1.584v-5.031c0-1.701-0.619-2.736-1.922-2.736
		c-0.918,0-1.635,0.68-1.908,1.473c-0.082,0.221-0.135,0.518-0.135,0.805v5.49h-1.572v-5.327c0-1.405-0.631-2.44-1.857-2.44
		c-1.014,0-1.747,0.814-2.005,1.611c-0.097,0.237-0.126,0.518-0.126,0.785v5.371h-1.583L94.783,30.312L94.783,30.312z"/>
	<polygon fill="#2E3191" points="61.47,77.797 70.833,77.797 70.833,111.216 87.227,111.216 87.227,119.04 61.47,119.04 	"/>
	<path fill="#2E3191" d="M102.04,80.815c0,2.545-1.961,4.631-5.022,4.631c-2.93,0-4.896-2.086-4.828-4.631
		c-0.067-2.721,1.898-4.72,4.888-4.72C100.079,76.096,101.975,78.095,102.04,80.815 M92.432,89.12h9.289v29.92h-9.289V89.12z"/>
	<path fill="#2E3191" d="M68.363,137.967c-0.333-0.02-0.754,0-1.213,0.068c-2.537,0.429-3.877,2.292-4.156,4.244h0.057
		c0.569-0.747,1.563-1.375,2.887-1.375c2.107,0,3.601,1.529,3.601,3.861c0,2.189-1.493,4.201-3.97,4.201
		c-2.553,0-4.225-1.984-4.225-5.089c0-2.347,0.842-4.202,2.019-5.386c0.999-0.977,2.315-1.568,3.818-1.752
		c0.488-0.066,0.886-0.098,1.183-0.098L68.363,137.967L68.363,137.967z M67.903,144.859c0-1.723-0.975-2.741-2.47-2.741
		c-0.969,0-1.864,0.622-2.309,1.479c-0.109,0.17-0.184,0.413-0.184,0.719c0.037,1.959,0.939,3.418,2.627,3.418
		C66.965,147.732,67.903,146.563,67.903,144.859"/>
	<path fill="#2E3191" d="M71.086,147.827c0-0.695,0.457-1.169,1.111-1.169c0.635,0,1.078,0.474,1.078,1.169
		c0,0.646-0.43,1.141-1.095,1.141C71.528,148.968,71.086,148.473,71.086,147.827"/>
	<path fill="#2E3191" d="M75.701,147.634c0.347,0.04,0.754,0,1.301-0.057c0.938-0.125,1.82-0.513,2.498-1.156
		c0.786-0.722,1.362-1.767,1.585-3.187h-0.058c-0.668,0.804-1.614,1.293-2.812,1.293c-2.145,0-3.528-1.61-3.528-3.652
		c0-2.266,1.633-4.245,4.082-4.245c2.435,0,3.942,1.979,3.942,5.029c0,2.639-0.88,4.467-2.055,5.606
		c-0.92,0.887-2.184,1.449-3.471,1.59c-0.592,0.097-1.101,0.111-1.485,0.097L75.701,147.634L75.701,147.634z M76.285,140.764
		c0,1.488,0.901,2.537,2.3,2.537c1.08,0,1.923-0.531,2.345-1.25c0.098-0.154,0.155-0.333,0.155-0.598
		c0-2.026-0.756-3.598-2.448-3.598C77.254,137.855,76.285,139.077,76.285,140.764"/>
	<path fill="#2E3191" d="M89.169,148.773v-3.254H83.63v-1.065l5.325-7.633h1.746v7.425h1.671v1.273h-1.671v3.254H89.169
		L89.169,148.773z M89.169,144.246v-3.992c0-0.605,0.022-1.229,0.06-1.865h-0.06c-0.36,0.696-0.659,1.217-0.983,1.776l-2.92,4.053
		v0.028H89.169z"/>
	<polygon fill="#2E3191" points="97.105,138.331 97.063,138.331 94.99,139.47 94.68,138.229 97.283,136.82 98.66,136.82 
		98.66,148.773 97.105,148.773 	"/>
	<path fill="#2E3191" d="M76.337,59.529c0.665,0.337,2.183,0.974,3.705,0.974c1.931,0,2.913-0.93,2.913-2.137
		c0-1.562-1.573-2.264-3.208-2.264h-1.516v-2.654h1.434c1.257-0.044,2.854-0.503,2.854-1.842c0-0.954-0.791-1.672-2.36-1.672
		c-1.293,0-2.669,0.555-3.327,0.955l-0.755-2.695c0.948-0.619,2.854-1.197,4.919-1.197c3.395,0,5.29,1.79,5.29,3.965
		c0,1.688-0.961,3.018-2.915,3.699v0.044c1.906,0.34,3.439,1.79,3.439,3.86c0,2.819-2.472,4.875-6.502,4.875
		c-2.057,0-3.796-0.539-4.727-1.125L76.337,59.529z"/>
</g>
</svg>
