<?xml version="1.0" encoding="utf-8"?>
<!-- Generator: Adobe Illustrator 16.0.0, SVG Export Plug-In . SVG Version: 6.00 Build 0)  -->
<!DOCTYPE svg PUBLIC "-//W3C//DTD SVG 1.1//EN" "http://www.w3.org/Graphics/SVG/1.1/DTD/svg11.dtd">
<svg version="1.1" id="Layer_1" xmlns="http://www.w3.org/2000/svg" xmlns:xlink="http://www.w3.org/1999/xlink" x="0px" y="0px"
	 width="445px" height="395px" viewBox="0 0 445 395" enable-background="new 0 0 445 395" xml:space="preserve">
<g>
	<g>
		<g>
			<g>
				<g>
					<polygon fill="none" stroke="#2E3191" stroke-width="1.2687" stroke-miterlimit="10" points="25.091,372.831 37.412,372.814 
						49.559,372.797 43.642,362.449 37.422,351.573 31.117,362.443 					"/>
					<polygon fill="none" stroke="#2E3191" stroke-width="1.2687" stroke-miterlimit="10" points="31.747,362.479 43.062,362.462 
						37.412,372.132 					"/>
				</g>
				<g>
					<polygon fill="none" stroke="#2E3191" stroke-width="1.2687" stroke-miterlimit="10" points="50.016,372.831 62.336,372.814 
						74.482,372.797 68.565,362.449 62.346,351.573 56.037,362.443 					"/>
					<polygon fill="none" stroke="#2E3191" stroke-width="1.2687" stroke-miterlimit="10" points="56.666,362.479 67.985,362.462 
						62.336,372.132 					"/>
				</g>
				<g>
					<polygon fill="none" stroke="#2E3191" stroke-width="1.2687" stroke-miterlimit="10" points="37.724,351.021 49.961,351.005 
						62.023,350.989 56.146,340.716 49.971,329.917 43.711,340.711 					"/>
					<polygon fill="none" stroke="#2E3191" stroke-width="1.2687" stroke-miterlimit="10" points="44.33,340.741 55.566,340.727 
						49.961,350.326 					"/>
				</g>
			</g>
			<g>
				<g>
					<polygon fill="none" stroke="#2E3191" stroke-width="1.2687" stroke-miterlimit="10" points="74.938,372.831 87.26,372.814 
						99.406,372.797 93.488,362.449 87.27,351.573 80.965,362.443 					"/>
					<polygon fill="none" stroke="#2E3191" stroke-width="1.2687" stroke-miterlimit="10" points="81.59,362.479 92.908,362.462 
						87.26,372.132 					"/>
				</g>
				<g>
					<polygon fill="none" stroke="#2E3191" stroke-width="1.2687" stroke-miterlimit="10" points="99.862,372.831 112.184,372.814 
						124.33,372.797 118.412,362.449 112.193,351.573 105.889,362.443 					"/>
					<polygon fill="none" stroke="#2E3191" stroke-width="1.2687" stroke-miterlimit="10" points="106.514,362.479 117.828,362.462 
						112.184,372.132 					"/>
				</g>
				<g>
					<polygon fill="none" stroke="#2E3191" stroke-width="1.2687" stroke-miterlimit="10" points="87.571,351.021 99.809,351.005 
						111.871,350.989 105.993,340.716 99.818,329.917 93.554,340.711 					"/>
					<polygon fill="none" stroke="#2E3191" stroke-width="1.2687" stroke-miterlimit="10" points="94.178,340.741 105.413,340.727 
						99.809,350.326 					"/>
				</g>
			</g>
			<g>
				<g>
					<polygon fill="none" stroke="#2E3191" stroke-width="1.2687" stroke-miterlimit="10" points="50.317,328.866 62.544,328.854 
						74.592,328.836 68.724,318.572 62.554,307.783 56.294,318.566 					"/>
					<polygon fill="none" stroke="#2E3191" stroke-width="1.2687" stroke-miterlimit="10" points="56.918,318.598 68.145,318.587 
						62.544,328.173 					"/>
				</g>
				<g>
					<polygon fill="none" stroke="#2E3191" stroke-width="1.2687" stroke-miterlimit="10" points="75.043,328.866 87.264,328.854 
						99.313,328.836 93.445,318.572 87.273,307.783 81.02,318.566 					"/>
					<polygon fill="none" stroke="#2E3191" stroke-width="1.2687" stroke-miterlimit="10" points="81.645,318.598 92.864,318.587 
						87.264,328.173 					"/>
				</g>
				<g>
					<polygon fill="none" stroke="#2E3191" stroke-width="1.2687" stroke-miterlimit="10" points="62.852,307.232 74.988,307.218 
						86.952,307.204 81.124,297.008 74.998,286.299 68.789,297.004 					"/>
					<polygon fill="none" stroke="#2E3191" stroke-width="1.2687" stroke-miterlimit="10" points="69.408,297.038 80.553,297.023 
						74.988,306.55 					"/>
				</g>
			</g>
		</g>
		<g>
			<g>
				<g>
					<polygon fill="none" stroke="#2E3191" stroke-width="1.2687" stroke-miterlimit="10" points="124.787,372.831 137.107,372.814 
						149.254,372.797 143.337,362.449 137.117,351.573 130.813,362.443 					"/>
					<polygon fill="none" stroke="#2E3191" stroke-width="1.2687" stroke-miterlimit="10" points="131.438,362.479 142.757,362.462 
						137.107,372.132 					"/>
				</g>
				<g>
					<polygon fill="none" stroke="#2E3191" stroke-width="1.2687" stroke-miterlimit="10" points="149.71,372.831 162.03,372.814 
						174.179,372.797 168.261,362.449 162.041,351.573 155.736,362.443 					"/>
					<polygon fill="none" stroke="#2E3191" stroke-width="1.2687" stroke-miterlimit="10" points="156.361,362.479 167.676,362.462 
						162.03,372.132 					"/>
				</g>
				<g>
					<polygon fill="none" stroke="#2E3191" stroke-width="1.2687" stroke-miterlimit="10" points="137.419,351.021 149.656,351.005 
						161.714,350.989 155.841,340.716 149.666,329.917 143.406,340.711 					"/>
					<polygon fill="none" stroke="#2E3191" stroke-width="1.2687" stroke-miterlimit="10" points="144.025,340.741 155.261,340.727 
						149.656,350.326 					"/>
				</g>
			</g>
			<g>
				<g>
					<polygon fill="none" stroke="#2E3191" stroke-width="1.2687" stroke-miterlimit="10" points="174.634,372.831 186.954,372.814 
						199.102,372.797 193.185,362.449 186.965,351.573 180.661,362.443 					"/>
					<polygon fill="none" stroke="#2E3191" stroke-width="1.2687" stroke-miterlimit="10" points="181.284,362.479 192.604,362.462 
						186.954,372.132 					"/>
				</g>
				<g>
					<polygon fill="none" stroke="#2E3191" stroke-width="1.2687" stroke-miterlimit="10" points="199.558,372.831 211.877,372.814 
						224.025,372.797 218.108,362.449 211.889,351.573 205.585,362.443 					"/>
					<polygon fill="none" stroke="#2E3191" stroke-width="1.2687" stroke-miterlimit="10" points="206.208,362.479 217.523,362.462 
						211.877,372.132 					"/>
				</g>
				<g>
					<polygon fill="none" stroke="#2E3191" stroke-width="1.2687" stroke-miterlimit="10" points="187.267,351.021 199.504,351.005 
						211.562,350.989 205.688,340.716 199.513,329.917 193.254,340.711 					"/>
					<polygon fill="none" stroke="#2E3191" stroke-width="1.2687" stroke-miterlimit="10" points="193.873,340.741 205.108,340.727 
						199.504,350.326 					"/>
				</g>
			</g>
			<g>
				<g>
					<polygon fill="none" stroke="#2E3191" stroke-width="1.2687" stroke-miterlimit="10" points="150.013,328.866 162.234,328.854 
						174.286,328.836 168.419,318.572 162.248,307.783 155.989,318.566 					"/>
					<polygon fill="none" stroke="#2E3191" stroke-width="1.2687" stroke-miterlimit="10" points="156.613,318.598 167.835,318.587 
						162.239,328.173 					"/>
				</g>
				<g>
					<polygon fill="none" stroke="#2E3191" stroke-width="1.2687" stroke-miterlimit="10" points="174.738,328.866 186.959,328.854 
						199.008,328.836 193.14,318.572 186.97,307.783 180.715,318.566 					"/>
					<polygon fill="none" stroke="#2E3191" stroke-width="1.2687" stroke-miterlimit="10" points="181.339,318.598 192.56,318.587 
						186.959,328.173 					"/>
				</g>
				<g>
					<polygon fill="none" stroke="#2E3191" stroke-width="1.2687" stroke-miterlimit="10" points="162.547,307.232 174.684,307.218 
						186.646,307.204 180.818,297.008 174.693,286.299 168.483,297.004 					"/>
					<polygon fill="none" stroke="#2E3191" stroke-width="1.2687" stroke-miterlimit="10" points="169.099,297.038 180.243,297.023 
						174.684,306.55 					"/>
				</g>
			</g>
		</g>
		<g>
			<g>
				<g>
					<polygon fill="none" stroke="#2E3191" stroke-width="1.2687" stroke-miterlimit="10" points="75.231,285.602 87.551,285.585 
						99.699,285.568 93.781,275.223 87.561,264.343 81.258,275.217 					"/>
					<polygon fill="none" stroke="#2E3191" stroke-width="1.2687" stroke-miterlimit="10" points="81.883,275.253 93.201,275.23 
						87.551,284.9 					"/>
				</g>
				<g>
					<polygon fill="none" stroke="#2E3191" stroke-width="1.2687" stroke-miterlimit="10" points="100.155,285.602 112.48,285.585 
						124.628,285.568 118.705,275.223 112.485,264.343 106.182,275.217 					"/>
					<polygon fill="none" stroke="#2E3191" stroke-width="1.2687" stroke-miterlimit="10" points="106.811,275.253 118.125,275.23 
						112.48,284.9 					"/>
				</g>
				<g>
					<polygon fill="none" stroke="#2E3191" stroke-width="1.2687" stroke-miterlimit="10" points="87.869,263.794 100.1,263.773 
						112.163,263.759 106.291,253.482 100.109,242.686 93.846,253.48 					"/>
					<polygon fill="none" stroke="#2E3191" stroke-width="1.2687" stroke-miterlimit="10" points="94.471,253.516 105.711,253.5 
						100.1,263.096 					"/>
				</g>
			</g>
			<g>
				<g>
					<polygon fill="none" stroke="#2E3191" stroke-width="1.2687" stroke-miterlimit="10" points="125.084,285.602 137.404,285.585 
						149.552,285.568 143.635,275.223 137.414,264.343 131.105,275.217 					"/>
					<polygon fill="none" stroke="#2E3191" stroke-width="1.2687" stroke-miterlimit="10" points="131.734,275.253 143.049,275.23 
						137.404,284.9 					"/>
				</g>
				<g>
					<polygon fill="none" stroke="#2E3191" stroke-width="1.2687" stroke-miterlimit="10" points="150.008,285.602 162.328,285.585 
						174.475,285.568 168.558,275.223 162.338,264.343 156.033,275.217 					"/>
					<polygon fill="none" stroke="#2E3191" stroke-width="1.2687" stroke-miterlimit="10" points="156.658,275.253 167.974,275.23 
						162.328,284.9 					"/>
				</g>
				<g>
					<polygon fill="none" stroke="#2E3191" stroke-width="1.2687" stroke-miterlimit="10" points="137.717,263.794 149.953,263.773 
						162.01,263.759 156.139,253.482 149.963,242.686 143.698,253.48 					"/>
					<polygon fill="none" stroke="#2E3191" stroke-width="1.2687" stroke-miterlimit="10" points="144.323,253.516 155.559,253.5 
						149.953,263.096 					"/>
				</g>
			</g>
			<g>
				<g>
					<polygon fill="none" stroke="#2E3191" stroke-width="1.2687" stroke-miterlimit="10" points="100.463,241.634 112.684,241.62 
						124.731,241.609 118.863,231.342 112.693,220.553 106.439,231.337 					"/>
					<polygon fill="none" stroke="#2E3191" stroke-width="1.2687" stroke-miterlimit="10" points="107.059,231.366 118.283,231.352 
						112.684,240.939 					"/>
				</g>
				<g>
					<polygon fill="none" stroke="#2E3191" stroke-width="1.2687" stroke-miterlimit="10" points="125.184,241.634 137.409,241.62 
						149.458,241.609 143.59,231.342 137.419,220.553 131.159,231.337 					"/>
					<polygon fill="none" stroke="#2E3191" stroke-width="1.2687" stroke-miterlimit="10" points="131.784,231.366 143.01,231.352 
						137.409,240.939 					"/>
				</g>
				<g>
					<polygon fill="none" stroke="#2E3191" stroke-width="1.2687" stroke-miterlimit="10" points="112.996,220.002 125.133,219.986 
						137.098,219.973 131.27,209.777 125.144,199.063 118.928,209.777 					"/>
					<polygon fill="none" stroke="#2E3191" stroke-width="1.2687" stroke-miterlimit="10" points="119.548,209.809 130.694,209.793 
						125.133,219.313 					"/>
				</g>
			</g>
		</g>
	</g>
	<g>
		<g>
			<g>
				<g>
					<polygon fill="none" stroke="#2E3191" stroke-width="1.2687" stroke-miterlimit="10" points="224.481,372.831 236.801,372.814 
						248.949,372.797 243.032,362.449 236.813,351.573 230.508,362.443 					"/>
					<polygon fill="none" stroke="#2E3191" stroke-width="1.2687" stroke-miterlimit="10" points="231.132,362.479 242.452,362.462 
						236.801,372.132 					"/>
				</g>
				<g>
					<polygon fill="none" stroke="#2E3191" stroke-width="1.2687" stroke-miterlimit="10" points="249.404,372.831 261.727,372.814 
						273.873,372.797 267.957,362.449 261.736,351.573 255.432,362.443 					"/>
					<polygon fill="none" stroke="#2E3191" stroke-width="1.2687" stroke-miterlimit="10" points="256.056,362.479 267.371,362.462 
						261.727,372.132 					"/>
				</g>
				<g>
					<polygon fill="none" stroke="#2E3191" stroke-width="1.2687" stroke-miterlimit="10" points="237.114,351.021 249.351,351.005 
						261.409,350.989 255.535,340.716 249.36,329.917 243.102,340.711 					"/>
					<polygon fill="none" stroke="#2E3191" stroke-width="1.2687" stroke-miterlimit="10" points="243.721,340.741 254.956,340.727 
						249.351,350.326 					"/>
				</g>
			</g>
			<g>
				<g>
					<polygon fill="none" stroke="#2E3191" stroke-width="1.2687" stroke-miterlimit="10" points="274.323,372.831 286.65,372.814 
						298.797,372.797 292.88,362.449 286.66,351.573 280.351,362.443 					"/>
					<polygon fill="none" stroke="#2E3191" stroke-width="1.2687" stroke-miterlimit="10" points="280.98,362.479 292.3,362.462 
						286.65,372.132 					"/>
				</g>
				<g>
					<polygon fill="none" stroke="#2E3191" stroke-width="1.2687" stroke-miterlimit="10" points="299.253,372.831 311.573,372.814 
						323.72,372.797 317.804,362.449 311.582,351.573 305.279,362.443 					"/>
					<polygon fill="none" stroke="#2E3191" stroke-width="1.2687" stroke-miterlimit="10" points="305.904,362.479 317.218,362.462 
						311.573,372.132 					"/>
				</g>
				<g>
					<polygon fill="none" stroke="#2E3191" stroke-width="1.2687" stroke-miterlimit="10" points="286.962,351.021 299.198,351.005 
						311.256,350.989 305.383,340.716 299.207,329.917 292.949,340.711 					"/>
					<polygon fill="none" stroke="#2E3191" stroke-width="1.2687" stroke-miterlimit="10" points="293.569,340.741 304.805,340.727 
						299.198,350.326 					"/>
				</g>
			</g>
			<g>
				<g>
					<polygon fill="none" stroke="#2E3191" stroke-width="1.2687" stroke-miterlimit="10" points="249.707,328.866 261.93,328.854 
						273.981,328.836 268.11,318.572 261.944,307.783 255.685,318.566 					"/>
					<polygon fill="none" stroke="#2E3191" stroke-width="1.2687" stroke-miterlimit="10" points="256.31,318.598 267.53,318.587 
						261.936,328.173 					"/>
				</g>
				<g>
					<polygon fill="none" stroke="#2E3191" stroke-width="1.2687" stroke-miterlimit="10" points="274.434,328.866 286.654,328.854 
						298.703,328.836 292.834,318.572 286.665,307.783 280.41,318.566 					"/>
					<polygon fill="none" stroke="#2E3191" stroke-width="1.2687" stroke-miterlimit="10" points="281.03,318.598 292.254,318.587 
						286.654,328.173 					"/>
				</g>
				<g>
					<polygon fill="none" stroke="#2E3191" stroke-width="1.2687" stroke-miterlimit="10" points="262.242,307.232 274.379,307.218 
						286.343,307.204 280.515,297.008 274.389,286.299 268.179,297.004 					"/>
					<polygon fill="none" stroke="#2E3191" stroke-width="1.2687" stroke-miterlimit="10" points="268.793,297.038 279.94,297.023 
						274.379,306.55 					"/>
				</g>
			</g>
		</g>
		<g>
			<g>
				<g>
					<polygon fill="none" stroke="#2E3191" stroke-width="1.2687" stroke-miterlimit="10" points="324.177,372.831 336.497,372.814 
						348.645,372.797 342.728,362.449 336.507,351.573 330.198,362.443 					"/>
					<polygon fill="none" stroke="#2E3191" stroke-width="1.2687" stroke-miterlimit="10" points="330.826,362.479 342.147,362.462 
						336.497,372.132 					"/>
				</g>
				<g>
					<polygon fill="none" stroke="#2E3191" stroke-width="1.2687" stroke-miterlimit="10" points="349.101,372.831 361.422,372.814 
						373.568,372.797 367.651,362.449 361.431,351.573 355.128,362.443 					"/>
					<polygon fill="none" stroke="#2E3191" stroke-width="1.2687" stroke-miterlimit="10" points="355.751,362.479 367.065,362.462 
						361.422,372.132 					"/>
				</g>
				<g>
					<polygon fill="none" stroke="#2E3191" stroke-width="1.2687" stroke-miterlimit="10" points="336.809,351.021 349.045,351.005 
						361.104,350.989 355.23,340.716 349.057,329.917 342.791,340.711 					"/>
					<polygon fill="none" stroke="#2E3191" stroke-width="1.2687" stroke-miterlimit="10" points="343.415,340.741 354.651,340.727 
						349.045,350.326 					"/>
				</g>
			</g>
			<g>
				<g>
					<polygon fill="none" stroke="#2E3191" stroke-width="1.2687" stroke-miterlimit="10" points="374.023,372.831 386.345,372.814 
						398.491,372.797 392.574,362.449 386.354,351.573 380.046,362.443 					"/>
					<polygon fill="none" stroke="#2E3191" stroke-width="1.2687" stroke-miterlimit="10" points="380.675,362.479 391.99,362.462 
						386.345,372.132 					"/>
				</g>
				<g>
					<polygon fill="none" stroke="#2E3191" stroke-width="1.2687" stroke-miterlimit="10" points="398.947,372.831 411.269,372.814 
						423.415,372.797 417.497,362.449 411.279,351.573 404.975,362.443 					"/>
					<polygon fill="none" stroke="#2E3191" stroke-width="1.2687" stroke-miterlimit="10" points="405.599,362.479 416.913,362.462 
						411.269,372.132 					"/>
				</g>
				<g>
					<polygon fill="none" stroke="#2E3191" stroke-width="1.2687" stroke-miterlimit="10" points="386.656,351.021 398.888,351.005 
						410.951,350.989 405.077,340.716 398.904,329.917 392.639,340.711 					"/>
					<polygon fill="none" stroke="#2E3191" stroke-width="1.2687" stroke-miterlimit="10" points="393.264,340.741 404.498,340.727 
						398.888,350.326 					"/>
				</g>
			</g>
			<g>
				<g>
					<polygon fill="none" stroke="#2E3191" stroke-width="1.2687" stroke-miterlimit="10" points="349.402,328.866 361.623,328.854 
						373.678,328.836 367.805,318.572 361.639,307.783 355.381,318.566 					"/>
					<polygon fill="none" stroke="#2E3191" stroke-width="1.2687" stroke-miterlimit="10" points="356.004,318.598 367.225,318.587 
						361.63,328.173 					"/>
				</g>
				<g>
					<polygon fill="none" stroke="#2E3191" stroke-width="1.2687" stroke-miterlimit="10" points="374.128,328.866 386.35,328.854 
						398.398,328.836 392.53,318.572 386.36,307.783 380.105,318.566 					"/>
					<polygon fill="none" stroke="#2E3191" stroke-width="1.2687" stroke-miterlimit="10" points="380.725,318.598 391.949,318.587 
						386.35,328.173 					"/>
				</g>
				<g>
					<polygon fill="none" stroke="#2E3191" stroke-width="1.2687" stroke-miterlimit="10" points="361.938,307.232 374.073,307.218 
						386.037,307.204 380.21,297.008 374.082,286.299 367.873,297.004 					"/>
					<polygon fill="none" stroke="#2E3191" stroke-width="1.2687" stroke-miterlimit="10" points="368.488,297.038 379.635,297.023 
						374.073,306.55 					"/>
				</g>
			</g>
		</g>
		<g>
			<g>
				<g>
					<polygon fill="none" stroke="#2E3191" stroke-width="1.2687" stroke-miterlimit="10" points="274.621,285.602 286.942,285.585 
						299.09,285.568 293.177,275.223 286.952,264.343 280.644,275.217 					"/>
					<polygon fill="none" stroke="#2E3191" stroke-width="1.2687" stroke-miterlimit="10" points="281.271,275.253 292.587,275.23 
						286.942,284.9 					"/>
				</g>
				<g>
					<polygon fill="none" stroke="#2E3191" stroke-width="1.2687" stroke-miterlimit="10" points="299.545,285.602 311.865,285.585 
						324.013,285.568 318.096,275.223 311.876,264.343 305.572,275.217 					"/>
					<polygon fill="none" stroke="#2E3191" stroke-width="1.2687" stroke-miterlimit="10" points="306.196,275.253 317.517,275.23 
						311.865,284.9 					"/>
				</g>
				<g>
					<polygon fill="none" stroke="#2E3191" stroke-width="1.2687" stroke-miterlimit="10" points="287.255,263.794 299.491,263.773 
						311.555,263.759 305.675,253.482 299.5,242.686 293.242,253.48 					"/>
					<polygon fill="none" stroke="#2E3191" stroke-width="1.2687" stroke-miterlimit="10" points="293.859,253.516 305.095,253.5 
						299.491,263.096 					"/>
				</g>
			</g>
			<g>
				<g>
					<polygon fill="none" stroke="#2E3191" stroke-width="1.2687" stroke-miterlimit="10" points="324.47,285.602 336.794,285.585 
						348.941,285.568 343.02,275.223 336.806,264.343 330.495,275.217 					"/>
					<polygon fill="none" stroke="#2E3191" stroke-width="1.2687" stroke-miterlimit="10" points="331.125,275.253 342.44,275.23 
						336.794,284.9 					"/>
				</g>
				<g>
					<polygon fill="none" stroke="#2E3191" stroke-width="1.2687" stroke-miterlimit="10" points="349.397,285.602 361.719,285.585 
						373.865,285.568 367.947,275.223 361.729,264.343 355.424,275.217 					"/>
					<polygon fill="none" stroke="#2E3191" stroke-width="1.2687" stroke-miterlimit="10" points="356.049,275.253 367.364,275.23 
						361.719,284.9 					"/>
				</g>
				<g>
					<polygon fill="none" stroke="#2E3191" stroke-width="1.2687" stroke-miterlimit="10" points="337.107,263.794 349.344,263.773 
						361.402,263.759 355.528,253.482 349.354,242.686 343.089,253.48 					"/>
					<polygon fill="none" stroke="#2E3191" stroke-width="1.2687" stroke-miterlimit="10" points="343.713,253.516 354.948,253.5 
						349.344,263.096 					"/>
				</g>
			</g>
			<g>
				<g>
					<polygon fill="none" stroke="#2E3191" stroke-width="1.2687" stroke-miterlimit="10" points="299.847,241.634 312.073,241.62 
						324.121,241.609 318.254,231.342 312.084,220.553 305.829,231.337 					"/>
					<polygon fill="none" stroke="#2E3191" stroke-width="1.2687" stroke-miterlimit="10" points="306.448,231.366 317.674,231.352 
						312.073,240.939 					"/>
				</g>
				<g>
					<polygon fill="none" stroke="#2E3191" stroke-width="1.2687" stroke-miterlimit="10" points="324.572,241.634 336.8,241.62 
						348.848,241.609 342.979,231.342 336.809,220.553 330.551,231.337 					"/>
					<polygon fill="none" stroke="#2E3191" stroke-width="1.2687" stroke-miterlimit="10" points="331.174,231.366 342.4,231.352 
						336.8,240.939 					"/>
				</g>
				<g>
					<polygon fill="none" stroke="#2E3191" stroke-width="1.2687" stroke-miterlimit="10" points="312.381,220.002 324.523,219.986 
						336.487,219.973 330.653,209.777 324.529,199.063 318.318,209.777 					"/>
					<polygon fill="none" stroke="#2E3191" stroke-width="1.2687" stroke-miterlimit="10" points="318.938,209.809 330.084,209.793 
						324.523,219.313 					"/>
				</g>
			</g>
		</g>
	</g>
	<g>
		<g>
			<g>
				<g>
					<polygon fill="none" stroke="#2E3191" stroke-width="1.2687" stroke-miterlimit="10" points="125.515,198.036 137.816,198.021 
						149.938,198.007 144.031,187.68 137.826,176.821 131.531,187.675 					"/>
					<polygon fill="none" stroke="#2E3191" stroke-width="1.2687" stroke-miterlimit="10" points="132.156,187.704 143.451,187.688 
						137.816,197.338 					"/>
				</g>
				<g>
					<polygon fill="none" stroke="#2E3191" stroke-width="1.2687" stroke-miterlimit="10" points="150.395,198.036 162.689,198.021 
						174.818,198.007 168.91,187.68 162.705,176.821 156.405,187.675 					"/>
					<polygon fill="none" stroke="#2E3191" stroke-width="1.2687" stroke-miterlimit="10" points="157.035,187.704 168.33,187.688 
						162.689,197.338 					"/>
				</g>
				<g>
					<polygon fill="none" stroke="#2E3191" stroke-width="1.2687" stroke-miterlimit="10" points="138.127,176.271 150.34,176.255 
						162.377,176.24 156.514,165.981 150.35,155.202 144.1,165.977 					"/>
					<polygon fill="none" stroke="#2E3191" stroke-width="1.2687" stroke-miterlimit="10" points="144.719,166.011 155.935,165.996 
						150.34,175.576 					"/>
				</g>
			</g>
			<g>
				<g>
					<polygon fill="none" stroke="#2E3191" stroke-width="1.2687" stroke-miterlimit="10" points="175.269,198.036 187.568,198.021 
						199.691,198.007 193.789,187.68 187.579,176.821 181.284,187.675 					"/>
					<polygon fill="none" stroke="#2E3191" stroke-width="1.2687" stroke-miterlimit="10" points="181.914,187.704 193.203,187.688 
						187.568,197.338 					"/>
				</g>
				<g>
					<polygon fill="none" stroke="#2E3191" stroke-width="1.2687" stroke-miterlimit="10" points="200.146,198.036 212.448,198.021 
						224.57,198.007 218.663,187.68 212.457,176.821 206.159,187.675 					"/>
					<polygon fill="none" stroke="#2E3191" stroke-width="1.2687" stroke-miterlimit="10" points="206.788,187.704 218.083,187.688 
						212.448,197.338 					"/>
				</g>
				<g>
					<polygon fill="none" stroke="#2E3191" stroke-width="1.2687" stroke-miterlimit="10" points="187.881,176.271 200.093,176.255 
						212.13,176.24 206.268,165.981 200.104,155.202 193.854,165.977 					"/>
					<polygon fill="none" stroke="#2E3191" stroke-width="1.2687" stroke-miterlimit="10" points="194.473,166.011 205.688,165.996 
						200.093,175.576 					"/>
				</g>
			</g>
			<g>
				<g>
					<polygon fill="none" stroke="#2E3191" stroke-width="1.2687" stroke-miterlimit="10" points="150.696,154.161 162.898,154.146 
						174.927,154.127 169.067,143.884 162.908,133.118 156.664,143.878 					"/>
					<polygon fill="none" stroke="#2E3191" stroke-width="1.2687" stroke-miterlimit="10" points="157.282,143.913 168.488,143.897 
						162.898,153.464 					"/>
				</g>
				<g>
					<polygon fill="none" stroke="#2E3191" stroke-width="1.2687" stroke-miterlimit="10" points="175.377,154.161 187.574,154.146 
						199.604,154.127 193.744,143.884 187.584,133.118 181.344,143.878 					"/>
					<polygon fill="none" stroke="#2E3191" stroke-width="1.2687" stroke-miterlimit="10" points="181.964,143.913 193.165,143.897 
						187.574,153.464 					"/>
				</g>
				<g>
					<polygon fill="none" stroke="#2E3191" stroke-width="1.2687" stroke-miterlimit="10" points="163.205,132.569 175.317,132.548 
						187.262,132.535 181.443,122.364 175.333,111.669 169.133,122.359 					"/>
					<polygon fill="none" stroke="#2E3191" stroke-width="1.2687" stroke-miterlimit="10" points="169.747,122.388 180.874,122.373 
						175.317,131.881 					"/>
				</g>
			</g>
		</g>
		<g>
			<g>
				<g>
					<polygon fill="none" stroke="#2E3191" stroke-width="1.2687" stroke-miterlimit="10" points="225.026,198.036 237.321,198.021 
						249.45,198.007 243.542,187.68 237.338,176.821 231.038,187.675 					"/>
					<polygon fill="none" stroke="#2E3191" stroke-width="1.2687" stroke-miterlimit="10" points="231.667,187.704 242.956,187.688 
						237.321,197.338 					"/>
				</g>
				<g>
					<polygon fill="none" stroke="#2E3191" stroke-width="1.2687" stroke-miterlimit="10" points="249.9,198.036 262.201,198.021 
						274.323,198.007 268.418,187.68 262.211,176.821 255.917,187.675 					"/>
					<polygon fill="none" stroke="#2E3191" stroke-width="1.2687" stroke-miterlimit="10" points="256.542,187.704 267.837,187.688 
						262.201,197.338 					"/>
				</g>
				<g>
					<polygon fill="none" stroke="#2E3191" stroke-width="1.2687" stroke-miterlimit="10" points="237.635,176.271 249.847,176.255 
						261.885,176.24 256.021,165.981 249.856,155.202 243.607,165.977 					"/>
					<polygon fill="none" stroke="#2E3191" stroke-width="1.2687" stroke-miterlimit="10" points="244.23,166.011 255.447,165.996 
						249.847,175.576 					"/>
				</g>
			</g>
			<g>
				<g>
					<polygon fill="none" stroke="#2E3191" stroke-width="1.2687" stroke-miterlimit="10" points="274.78,198.036 287.076,198.021 
						299.198,198.007 293.296,187.68 287.086,176.821 280.791,187.675 					"/>
					<polygon fill="none" stroke="#2E3191" stroke-width="1.2687" stroke-miterlimit="10" points="281.421,187.704 292.716,187.688 
						287.076,197.338 					"/>
				</g>
				<g>
					<polygon fill="none" stroke="#2E3191" stroke-width="1.2687" stroke-miterlimit="10" points="299.653,198.036 311.954,198.021 
						324.076,198.007 318.175,187.68 311.966,176.821 305.671,187.675 					"/>
					<polygon fill="none" stroke="#2E3191" stroke-width="1.2687" stroke-miterlimit="10" points="306.295,187.704 317.59,187.688 
						311.954,197.338 					"/>
				</g>
				<g>
					<polygon fill="none" stroke="#2E3191" stroke-width="1.2687" stroke-miterlimit="10" points="287.389,176.271 299.6,176.255 
						311.639,176.24 305.774,165.981 299.61,155.202 293.36,165.977 					"/>
					<polygon fill="none" stroke="#2E3191" stroke-width="1.2687" stroke-miterlimit="10" points="293.984,166.011 305.194,165.996 
						299.6,175.576 					"/>
				</g>
			</g>
			<g>
				<g>
					<polygon fill="none" stroke="#2E3191" stroke-width="1.2687" stroke-miterlimit="10" points="250.203,154.161 262.404,154.146 
						274.434,154.127 268.571,143.884 262.416,133.118 256.17,143.878 					"/>
					<polygon fill="none" stroke="#2E3191" stroke-width="1.2687" stroke-miterlimit="10" points="256.795,143.913 267.995,143.897 
						262.404,153.464 					"/>
				</g>
				<g>
					<polygon fill="none" stroke="#2E3191" stroke-width="1.2687" stroke-miterlimit="10" points="274.879,154.161 287.086,154.146 
						299.11,154.127 293.251,143.884 287.091,133.118 280.847,143.878 					"/>
					<polygon fill="none" stroke="#2E3191" stroke-width="1.2687" stroke-miterlimit="10" points="281.471,143.913 292.671,143.897 
						287.086,153.464 					"/>
				</g>
				<g>
					<polygon fill="none" stroke="#2E3191" stroke-width="1.2687" stroke-miterlimit="10" points="262.718,132.569 274.829,132.548 
						286.769,132.535 280.956,122.364 274.84,111.669 268.64,122.359 					"/>
					<polygon fill="none" stroke="#2E3191" stroke-width="1.2687" stroke-miterlimit="10" points="269.254,122.388 280.381,122.373 
						274.829,131.881 					"/>
				</g>
			</g>
		</g>
		<g>
			<g>
				<g>
					<polygon fill="none" stroke="#2E3191" stroke-width="1.2687" stroke-miterlimit="10" points="175.561,110.976 187.861,110.959 
						199.99,110.94 194.082,100.611 187.872,89.759 181.577,100.606 					"/>
					<polygon fill="none" stroke="#2E3191" stroke-width="1.2687" stroke-miterlimit="10" points="182.201,100.642 193.496,100.628 
						187.861,110.271 					"/>
				</g>
				<g>
					<polygon fill="none" stroke="#2E3191" stroke-width="1.2687" stroke-miterlimit="10" points="200.439,110.976 212.741,110.959 
						224.863,110.94 218.961,100.611 212.75,89.759 206.452,100.606 					"/>
					<polygon fill="none" stroke="#2E3191" stroke-width="1.2687" stroke-miterlimit="10" points="207.081,100.642 218.376,100.628 
						212.741,110.271 					"/>
				</g>
				<g>
					<polygon fill="none" stroke="#2E3191" stroke-width="1.2687" stroke-miterlimit="10" points="188.174,89.204 200.386,89.188 
						212.429,89.174 206.561,78.914 200.395,68.14 194.146,78.91 					"/>
					<polygon fill="none" stroke="#2E3191" stroke-width="1.2687" stroke-miterlimit="10" points="194.771,78.944 205.986,78.929 
						200.386,88.511 					"/>
				</g>
			</g>
			<g>
				<g>
					<polygon fill="none" stroke="#2E3191" stroke-width="1.2687" stroke-miterlimit="10" points="225.318,110.976 237.62,110.959 
						249.743,110.94 243.835,100.611 237.629,89.759 231.331,100.606 					"/>
					<polygon fill="none" stroke="#2E3191" stroke-width="1.2687" stroke-miterlimit="10" points="231.96,100.642 243.255,100.628 
						237.62,110.271 					"/>
				</g>
				<g>
					<polygon fill="none" stroke="#2E3191" stroke-width="1.2687" stroke-miterlimit="10" points="250.198,110.976 262.499,110.959 
						274.621,110.94 268.719,100.611 262.504,89.759 256.21,100.606 					"/>
					<polygon fill="none" stroke="#2E3191" stroke-width="1.2687" stroke-miterlimit="10" points="256.839,100.642 268.134,100.628 
						262.499,110.271 					"/>
				</g>
				<g>
					<polygon fill="none" stroke="#2E3191" stroke-width="1.2687" stroke-miterlimit="10" points="237.933,89.204 250.144,89.188 
						262.183,89.174 256.319,78.914 250.153,68.14 243.903,78.91 					"/>
					<polygon fill="none" stroke="#2E3191" stroke-width="1.2687" stroke-miterlimit="10" points="244.523,78.944 255.739,78.929 
						250.144,88.511 					"/>
				</g>
			</g>
			<g>
				<g>
					<polygon fill="none" stroke="#2E3191" stroke-width="1.2687" stroke-miterlimit="10" points="200.741,67.09 212.943,67.075 
						224.973,67.059 219.114,56.814 212.953,46.051 206.709,56.812 					"/>
					<polygon fill="none" stroke="#2E3191" stroke-width="1.2687" stroke-miterlimit="10" points="207.334,56.842 218.534,56.826 
						212.943,66.396 					"/>
				</g>
				<g>
					<polygon fill="none" stroke="#2E3191" stroke-width="1.2687" stroke-miterlimit="10" points="225.423,67.09 237.626,67.075 
						249.647,67.059 243.79,56.814 237.635,46.051 231.391,56.812 					"/>
					<polygon fill="none" stroke="#2E3191" stroke-width="1.2687" stroke-miterlimit="10" points="232.01,56.842 243.215,56.826 
						237.626,66.396 					"/>
				</g>
				<g>
					<polygon fill="none" stroke="#2E3191" stroke-width="1.2687" stroke-miterlimit="10" points="213.257,45.495 225.369,45.48 
						237.313,45.466 231.493,35.292 225.378,24.602 219.179,35.286 					"/>
					<polygon fill="none" stroke="#2E3191" stroke-width="1.2687" stroke-miterlimit="10" points="219.794,35.322 230.919,35.306 
						225.369,44.812 					"/>
				</g>
			</g>
		</g>
	</g>
</g>
<g id="Layer_1_1_">
</g>
</svg>
