<?xml version="1.0" encoding="utf-8"?>
<!-- Generator: Adobe Illustrator 16.0.0, SVG Export Plug-In . SVG Version: 6.00 Build 0)  -->
<!DOCTYPE svg PUBLIC "-//W3C//DTD SVG 1.1//EN" "http://www.w3.org/Graphics/SVG/1.1/DTD/svg11.dtd">
<svg version="1.1" id="Layer_1" xmlns="http://www.w3.org/2000/svg" xmlns:xlink="http://www.w3.org/1999/xlink" x="0px" y="0px"
	 width="251px" height="256px" viewBox="0 0 251 256" enable-background="new 0 0 251 256" xml:space="preserve">
<line fill="none" stroke="#2E3191" stroke-width="0.7211" stroke-miterlimit="10" x1="54.482" y1="178.18" x2="122.269" y2="76.499"/>
<line fill="none" stroke="#2E3191" stroke-width="0.7211" stroke-miterlimit="10" x1="122.269" y1="76.499" x2="186.482" y2="178.18"/>
<line fill="none" stroke="#2E3191" stroke-miterlimit="10" x1="189" y1="179.5" x2="56" y2="179.5"/>
<line fill="none" stroke="#2E3191" stroke-width="2.0369" stroke-miterlimit="10" x1="54.482" y1="178.18" x2="122.269" y2="76.499"/>
<line fill="none" stroke="#2E3191" stroke-width="2.0369" stroke-miterlimit="10" x1="122.269" y1="76.499" x2="186.482" y2="178.18"/>
<path fill="#2E3191" d="M54.482,166.4c6.502,0,11.77,5.273,11.77,11.777c0,6.496-5.268,11.769-11.77,11.769
	c-6.5,0-11.769-5.271-11.769-11.769C42.714,171.675,47.982,166.4,54.482,166.4z"/>
<rect x="108" y="65" fill="#2E3191" width="27" height="26"/>
<polygon fill="#2E3191" points="201,184.434 190,190.55 179,184.434 179,172.199 190,166.08 201,172.199 "/>
<g>
	<g>
		<path fill="#2E3191" d="M143.975,211.107v-7.105h1.416l1.682,5.032c0.154,0.468,0.269,0.817,0.34,1.052
			c0.08-0.259,0.206-0.639,0.378-1.141l1.701-4.943h1.266v7.105h-0.907v-5.946l-2.063,5.946h-0.849l-2.056-6.049v6.049H143.975z"/>
		<path fill="#2E3191" d="M155.686,209.45l0.901,0.112c-0.144,0.525-0.405,0.936-0.79,1.226c-0.385,0.291-0.876,0.437-1.474,0.437
			c-0.753,0-1.351-0.23-1.791-0.695c-0.441-0.463-0.662-1.113-0.662-1.95c0-0.866,0.224-1.538,0.669-2.017
			c0.445-0.479,1.023-0.719,1.734-0.719c0.688,0,1.252,0.234,1.688,0.703s0.654,1.128,0.654,1.979c0,0.052-0.002,0.129-0.005,0.232
			h-3.84c0.033,0.565,0.191,0.998,0.479,1.299c0.287,0.301,0.646,0.451,1.076,0.451c0.319,0,0.593-0.085,0.819-0.253
			S155.553,209.818,155.686,209.45z M152.82,208.04h2.875c-0.039-0.433-0.149-0.758-0.33-0.976
			c-0.278-0.336-0.639-0.504-1.081-0.504c-0.4,0-0.737,0.135-1.011,0.402C153.001,207.232,152.85,207.591,152.82,208.04z"/>
		<path fill="#2E3191" d="M161.042,210.475c-0.323,0.273-0.635,0.469-0.935,0.58c-0.299,0.113-0.619,0.17-0.961,0.17
			c-0.565,0-1-0.138-1.305-0.414c-0.304-0.275-0.455-0.629-0.455-1.06c0-0.252,0.057-0.481,0.172-0.69
			c0.114-0.209,0.266-0.375,0.45-0.502c0.185-0.125,0.396-0.222,0.628-0.285c0.172-0.045,0.43-0.09,0.775-0.131
			c0.704-0.084,1.225-0.185,1.556-0.302c0.005-0.118,0.005-0.194,0.005-0.228c0-0.355-0.082-0.605-0.246-0.752
			c-0.224-0.196-0.555-0.295-0.994-0.295c-0.41,0-0.713,0.072-0.908,0.216s-0.34,0.397-0.434,0.764l-0.854-0.116
			c0.077-0.365,0.205-0.66,0.383-0.885c0.179-0.225,0.435-0.396,0.771-0.52c0.336-0.12,0.726-0.183,1.168-0.183
			c0.439,0,0.797,0.052,1.072,0.155c0.273,0.104,0.477,0.232,0.604,0.391c0.13,0.156,0.22,0.354,0.271,0.594
			c0.029,0.148,0.045,0.418,0.045,0.806v1.163c0,0.813,0.019,1.324,0.055,1.539c0.037,0.215,0.111,0.421,0.222,0.617h-0.911
			C161.126,210.928,161.066,210.716,161.042,210.475z M160.969,208.523c-0.316,0.131-0.791,0.24-1.425,0.33
			c-0.358,0.053-0.612,0.109-0.761,0.176c-0.148,0.063-0.264,0.158-0.346,0.283c-0.08,0.123-0.121,0.263-0.121,0.414
			c0,0.232,0.088,0.426,0.266,0.582c0.176,0.154,0.434,0.231,0.773,0.231c0.336,0,0.635-0.073,0.896-0.222
			c0.263-0.146,0.454-0.348,0.577-0.604c0.093-0.195,0.14-0.486,0.14-0.872L160.969,208.523L160.969,208.523z"/>
		<path fill="#2E3191" d="M163.203,211.107v-5.146h0.785v0.73c0.378-0.564,0.925-0.849,1.639-0.849c0.311,0,0.596,0.058,0.855,0.168
			c0.259,0.111,0.455,0.259,0.584,0.438s0.22,0.396,0.271,0.645c0.032,0.162,0.05,0.444,0.05,0.85v3.164h-0.873v-3.131
			c0-0.355-0.033-0.621-0.103-0.797c-0.067-0.177-0.188-0.316-0.361-0.423c-0.173-0.104-0.375-0.157-0.608-0.157
			c-0.371,0-0.691,0.118-0.961,0.354c-0.271,0.235-0.404,0.685-0.404,1.343v2.813h-0.873V211.107z"/>
		<path fill="#2E3191" d="M168.376,209.572l0.862-0.137c0.049,0.347,0.184,0.61,0.404,0.795s0.53,0.276,0.928,0.276
			c0.402,0,0.699-0.082,0.894-0.245c0.193-0.162,0.29-0.354,0.29-0.574c0-0.196-0.085-0.353-0.257-0.465
			c-0.119-0.078-0.417-0.177-0.892-0.297c-0.641-0.16-1.084-0.301-1.332-0.419c-0.246-0.118-0.435-0.28-0.562-0.489
			c-0.128-0.209-0.19-0.438-0.19-0.69c0-0.229,0.052-0.441,0.156-0.638c0.104-0.195,0.248-0.357,0.43-0.486
			c0.136-0.102,0.32-0.186,0.556-0.255c0.233-0.069,0.485-0.104,0.753-0.104c0.404,0,0.759,0.059,1.064,0.176
			c0.305,0.115,0.529,0.273,0.676,0.473s0.246,0.465,0.301,0.798l-0.854,0.116c-0.039-0.266-0.15-0.473-0.336-0.621
			c-0.188-0.148-0.449-0.223-0.789-0.223c-0.399,0-0.687,0.065-0.857,0.198c-0.171,0.132-0.258,0.287-0.258,0.466
			c0,0.112,0.037,0.215,0.107,0.306c0.07,0.094,0.182,0.171,0.334,0.231c0.088,0.032,0.344,0.106,0.771,0.223
			c0.617,0.166,1.048,0.301,1.292,0.406c0.243,0.104,0.437,0.258,0.573,0.457c0.139,0.2,0.209,0.449,0.209,0.746
			c0,0.291-0.084,0.565-0.254,0.822s-0.414,0.455-0.734,0.596s-0.682,0.211-1.086,0.211c-0.669,0-1.18-0.139-1.529-0.416
			C168.695,210.53,168.473,210.118,168.376,209.572z"/>
		<path fill="#2E3191" d="M176.122,208.534c0-0.953,0.265-1.659,0.795-2.118c0.442-0.381,0.981-0.572,1.618-0.572
			c0.708,0,1.285,0.232,1.734,0.696s0.674,1.104,0.674,1.922c0,0.662-0.098,1.185-0.297,1.563s-0.488,0.674-0.867,0.884
			c-0.381,0.211-0.795,0.315-1.244,0.315c-0.721,0-1.303-0.23-1.747-0.693S176.122,209.402,176.122,208.534z M177.02,208.534
			c0,0.659,0.144,1.153,0.432,1.481c0.287,0.327,0.648,0.491,1.085,0.491c0.435,0,0.794-0.165,1.081-0.495
			c0.287-0.328,0.432-0.832,0.432-1.507c0-0.637-0.145-1.119-0.434-1.446c-0.289-0.328-0.649-0.492-1.079-0.492
			c-0.437,0-0.798,0.162-1.085,0.488C177.162,207.383,177.02,207.875,177.02,208.534z"/>
		<path fill="#2E3191" d="M182.178,211.107v-4.469h-0.771v-0.679h0.771v-0.548c0-0.346,0.029-0.604,0.092-0.771
			c0.084-0.226,0.23-0.408,0.442-0.55c0.212-0.141,0.509-0.211,0.89-0.211c0.246,0,0.518,0.029,0.814,0.088l-0.131,0.761
			c-0.182-0.031-0.354-0.049-0.514-0.049c-0.267,0-0.453,0.057-0.563,0.17s-0.165,0.324-0.165,0.635v0.477h1.004v0.678h-1.004v4.471
			h-0.865V211.107z"/>
		<path fill="#2E3191" d="M187.482,213.081v-7.12h0.795v0.669c0.188-0.262,0.4-0.458,0.636-0.59
			c0.235-0.131,0.522-0.196,0.858-0.196c0.438,0,0.826,0.113,1.162,0.34c0.336,0.228,0.59,0.545,0.762,0.957
			s0.258,0.864,0.258,1.355c0,0.525-0.096,1.001-0.284,1.422c-0.188,0.422-0.464,0.745-0.823,0.971
			c-0.361,0.225-0.74,0.336-1.138,0.336c-0.29,0-0.552-0.062-0.782-0.184c-0.23-0.123-0.421-0.277-0.568-0.466v2.506H187.482z
			 M188.273,208.563c0,0.662,0.134,1.152,0.401,1.47c0.269,0.317,0.593,0.476,0.976,0.476c0.388,0,0.72-0.164,0.996-0.492
			c0.275-0.328,0.414-0.837,0.414-1.523c0-0.656-0.136-1.147-0.404-1.475c-0.271-0.326-0.594-0.49-0.967-0.49
			s-0.701,0.175-0.987,0.521C188.417,207.396,188.273,207.9,188.273,208.563z"/>
		<path fill="#2E3191" d="M192.995,211.107v-5.146h0.784v0.78c0.201-0.365,0.387-0.606,0.557-0.724
			c0.169-0.115,0.355-0.175,0.561-0.175c0.293,0,0.592,0.095,0.896,0.281l-0.301,0.81c-0.214-0.125-0.427-0.188-0.64-0.188
			c-0.19,0-0.361,0.057-0.515,0.172c-0.151,0.114-0.26,0.273-0.323,0.479c-0.099,0.311-0.146,0.648-0.146,1.018v2.695h-0.872
			V211.107z"/>
		<path fill="#2E3191" d="M195.986,208.534c0-0.953,0.265-1.659,0.795-2.118c0.441-0.381,0.98-0.572,1.617-0.572
			c0.709,0,1.287,0.232,1.735,0.696c0.449,0.464,0.675,1.104,0.675,1.922c0,0.662-0.1,1.185-0.299,1.563
			c-0.197,0.379-0.488,0.674-0.867,0.884c-0.379,0.211-0.795,0.315-1.244,0.315c-0.721,0-1.303-0.23-1.746-0.693
			C196.208,210.068,195.986,209.402,195.986,208.534z M196.883,208.534c0,0.659,0.145,1.153,0.432,1.481
			c0.287,0.327,0.649,0.491,1.086,0.491c0.434,0,0.793-0.165,1.08-0.495c0.289-0.328,0.433-0.832,0.433-1.507
			c0-0.637-0.146-1.119-0.435-1.446c-0.289-0.328-0.648-0.492-1.078-0.492c-0.437,0-0.799,0.162-1.086,0.488
			C197.025,207.383,196.883,207.875,196.883,208.534z"/>
		<path fill="#2E3191" d="M205.172,211.107v-0.648c-0.326,0.511-0.807,0.766-1.439,0.766c-0.41,0-0.787-0.113-1.131-0.339
			c-0.346-0.227-0.611-0.542-0.801-0.948c-0.189-0.404-0.283-0.871-0.283-1.397c0-0.515,0.086-0.979,0.258-1.397
			c0.17-0.418,0.428-0.74,0.771-0.963s0.726-0.335,1.147-0.335c0.312,0,0.588,0.065,0.83,0.196c0.242,0.132,0.438,0.302,0.59,0.512
			v-2.55h0.869v7.106h-0.811V211.107z M202.414,208.539c0,0.659,0.139,1.152,0.417,1.479c0.276,0.326,0.604,0.49,0.983,0.49
			c0.381,0,0.705-0.156,0.972-0.468c0.267-0.313,0.399-0.788,0.399-1.429c0-0.704-0.136-1.221-0.406-1.551
			c-0.271-0.33-0.605-0.494-1.004-0.494c-0.389,0-0.711,0.158-0.973,0.475C202.544,207.357,202.414,207.857,202.414,208.539z"/>
		<path fill="#2E3191" d="M210.727,211.107v-0.756c-0.4,0.582-0.944,0.873-1.634,0.873c-0.304,0-0.587-0.059-0.851-0.176
			c-0.264-0.115-0.459-0.262-0.588-0.438c-0.127-0.176-0.217-0.393-0.268-0.646c-0.037-0.172-0.055-0.443-0.055-0.814v-3.188h0.873
			v2.854c0,0.455,0.018,0.763,0.053,0.92c0.057,0.229,0.172,0.41,0.35,0.541c0.179,0.132,0.397,0.197,0.66,0.197
			c0.262,0,0.506-0.067,0.735-0.201c0.229-0.135,0.392-0.317,0.487-0.549c0.096-0.23,0.143-0.565,0.143-1.006v-2.758h0.873v5.146
			H210.727z"/>
		<path fill="#2E3191" d="M216.232,209.223l0.857,0.111c-0.094,0.592-0.333,1.055-0.72,1.389c-0.386,0.336-0.86,0.502-1.423,0.502
			c-0.704,0-1.27-0.229-1.698-0.689c-0.429-0.461-0.644-1.121-0.644-1.98c0-0.556,0.092-1.041,0.276-1.459
			c0.185-0.416,0.466-0.729,0.841-0.938c0.377-0.209,0.786-0.313,1.229-0.313c0.56,0,1.016,0.142,1.37,0.425
			c0.355,0.282,0.584,0.686,0.685,1.205l-0.849,0.131c-0.08-0.347-0.225-0.605-0.43-0.78s-0.453-0.263-0.744-0.263
			c-0.438,0-0.795,0.157-1.07,0.474c-0.273,0.315-0.412,0.813-0.412,1.495c0,0.691,0.133,1.193,0.396,1.508
			c0.267,0.313,0.611,0.471,1.039,0.471c0.342,0,0.627-0.104,0.856-0.314C216.023,209.984,216.172,209.659,216.232,209.223z"/>
		<path fill="#2E3191" d="M219.743,210.328l0.126,0.771c-0.246,0.051-0.467,0.076-0.659,0.076c-0.317,0-0.563-0.05-0.737-0.148
			c-0.174-0.102-0.297-0.232-0.367-0.396c-0.071-0.164-0.106-0.507-0.106-1.029v-2.963h-0.64v-0.678h0.64v-1.275l0.867-0.522v1.799
			h0.878v0.679h-0.878v3.01c0,0.25,0.016,0.41,0.047,0.479c0.03,0.071,0.08,0.128,0.149,0.17s0.168,0.063,0.299,0.063
			C219.457,210.361,219.585,210.352,219.743,210.328z"/>
		<path fill="#2E3191" d="M220.602,205.006v-1.004h0.873v1.004H220.602z M220.602,211.107v-5.146h0.873v5.146H220.602z"/>
		<path fill="#2E3191" d="M222.477,208.534c0-0.953,0.266-1.659,0.795-2.118c0.442-0.381,0.981-0.572,1.619-0.572
			c0.707,0,1.285,0.232,1.734,0.696s0.674,1.104,0.674,1.922c0,0.662-0.099,1.185-0.298,1.563c-0.198,0.379-0.487,0.674-0.867,0.884
			c-0.38,0.211-0.795,0.315-1.243,0.315c-0.722,0-1.304-0.23-1.748-0.693C222.697,210.068,222.477,209.402,222.477,208.534z
			 M223.373,208.534c0,0.659,0.145,1.153,0.432,1.481c0.287,0.327,0.649,0.491,1.086,0.491c0.434,0,0.793-0.165,1.08-0.495
			c0.288-0.328,0.432-0.832,0.432-1.507c0-0.637-0.145-1.119-0.434-1.446c-0.289-0.328-0.648-0.492-1.078-0.492
			c-0.437,0-0.799,0.162-1.086,0.488C223.518,207.383,223.373,207.875,223.373,208.534z"/>
		<path fill="#2E3191" d="M228.322,211.107v-5.146h0.785v0.73c0.377-0.564,0.925-0.849,1.639-0.849c0.311,0,0.596,0.058,0.855,0.168
			c0.258,0.111,0.455,0.259,0.584,0.438s0.219,0.396,0.271,0.645c0.032,0.162,0.049,0.444,0.049,0.85v3.164h-0.873v-3.131
			c0-0.355-0.032-0.621-0.103-0.797c-0.066-0.177-0.188-0.316-0.36-0.423c-0.173-0.104-0.375-0.157-0.608-0.157
			c-0.371,0-0.691,0.118-0.961,0.354c-0.271,0.235-0.404,0.685-0.404,1.343v2.813h-0.873V211.107z"/>
		<path fill="#2E3191" d="M174.264,228.798c-0.482-0.606-0.89-1.317-1.223-2.133s-0.5-1.657-0.5-2.53
			c0-0.769,0.125-1.506,0.374-2.21c0.291-0.817,0.739-1.632,1.349-2.442h0.625c-0.393,0.672-0.65,1.151-0.775,1.438
			c-0.197,0.446-0.354,0.912-0.467,1.396c-0.139,0.604-0.207,1.213-0.207,1.822c0,1.555,0.481,3.107,1.449,4.658L174.264,228.798
			L174.264,228.798z"/>
		<path fill="#2E3191" d="M175.727,223.248c0-1.18,0.316-2.104,0.949-2.771c0.635-0.666,1.451-1,2.453-1
			c0.656,0,1.247,0.156,1.773,0.471c0.527,0.313,0.929,0.75,1.205,1.311c0.275,0.563,0.414,1.197,0.414,1.908
			c0,0.721-0.146,1.365-0.437,1.934c-0.291,0.569-0.703,1-1.235,1.293c-0.533,0.291-1.108,0.438-1.727,0.438
			c-0.669,0-1.268-0.161-1.794-0.484c-0.526-0.322-0.927-0.765-1.197-1.322C175.861,224.463,175.727,223.872,175.727,223.248z
			 M176.695,223.264c0,0.855,0.229,1.53,0.689,2.022c0.461,0.493,1.038,0.739,1.733,0.739c0.708,0,1.29-0.25,1.747-0.746
			c0.457-0.498,0.688-1.204,0.688-2.118c0-0.579-0.099-1.084-0.295-1.517c-0.195-0.431-0.48-0.766-0.857-1.002
			c-0.377-0.238-0.799-0.356-1.268-0.356c-0.666,0-1.238,0.229-1.719,0.687C176.936,221.43,176.695,222.193,176.695,223.264z"/>
		<path fill="#2E3191" d="M184.428,226.709h-0.811v-7.105h0.873v2.535c0.367-0.463,0.838-0.693,1.41-0.693
			c0.315,0,0.615,0.063,0.898,0.191c0.282,0.127,0.516,0.307,0.698,0.537c0.183,0.231,0.325,0.512,0.429,0.837
			c0.104,0.326,0.155,0.675,0.155,1.048c0,0.881-0.22,1.563-0.653,2.045c-0.438,0.481-0.961,0.723-1.572,0.723
			c-0.606,0-1.084-0.254-1.43-0.762v0.645H184.428z M184.417,224.098c0,0.616,0.084,1.063,0.252,1.338
			c0.274,0.448,0.646,0.674,1.115,0.674c0.381,0,0.711-0.166,0.987-0.498c0.278-0.33,0.418-0.824,0.418-1.48
			c0-0.672-0.133-1.168-0.399-1.488c-0.267-0.318-0.589-0.479-0.967-0.479c-0.382,0-0.712,0.166-0.989,0.497
			S184.417,223.47,184.417,224.098z"/>
		<path fill="#2E3191" d="M188.033,228.706l0.164-0.741c0.176,0.045,0.313,0.067,0.412,0.067c0.179,0,0.312-0.06,0.397-0.177
			c0.086-0.119,0.132-0.414,0.132-0.886v-5.409h0.873v5.43c0,0.633-0.084,1.074-0.248,1.322c-0.211,0.323-0.56,0.484-1.048,0.484
			C188.48,228.798,188.253,228.768,188.033,228.706z M189.139,220.616v-1.015h0.873v1.015H189.139z"/>
		<path fill="#2E3191" d="M194.873,225.051l0.9,0.112c-0.143,0.526-0.404,0.937-0.789,1.226c-0.385,0.291-0.877,0.438-1.475,0.438
			c-0.753,0-1.35-0.231-1.791-0.695s-0.662-1.113-0.662-1.951c0-0.865,0.225-1.537,0.67-2.017s1.023-0.718,1.734-0.718
			c0.688,0,1.251,0.233,1.688,0.703c0.437,0.469,0.654,1.127,0.654,1.978c0,0.052-0.002,0.13-0.005,0.233h-3.839
			c0.032,0.564,0.191,0.998,0.479,1.299s0.646,0.451,1.076,0.451c0.319,0,0.594-0.086,0.819-0.254
			C194.561,225.688,194.74,225.42,194.873,225.051z M192.008,223.641h2.875c-0.039-0.433-0.148-0.758-0.33-0.975
			c-0.277-0.336-0.638-0.504-1.08-0.504c-0.4,0-0.738,0.134-1.012,0.402S192.037,223.191,192.008,223.641z"/>
		<path fill="#2E3191" d="M200.229,224.823l0.857,0.11c-0.094,0.592-0.333,1.056-0.72,1.39c-0.386,0.335-0.86,0.502-1.423,0.502
			c-0.705,0-1.271-0.23-1.698-0.69c-0.429-0.461-0.644-1.121-0.644-1.979c0-0.556,0.092-1.042,0.276-1.46
			c0.185-0.416,0.465-0.729,0.841-0.938c0.377-0.209,0.786-0.313,1.229-0.313c0.56,0,1.017,0.142,1.371,0.425
			c0.355,0.282,0.584,0.685,0.685,1.204l-0.849,0.131c-0.08-0.346-0.225-0.605-0.43-0.78s-0.453-0.262-0.744-0.262
			c-0.438,0-0.795,0.157-1.07,0.473c-0.273,0.315-0.412,0.813-0.412,1.495c0,0.692,0.133,1.194,0.396,1.508
			c0.267,0.313,0.611,0.471,1.039,0.471c0.342,0,0.627-0.104,0.856-0.314S200.168,225.26,200.229,224.823z"/>
		<path fill="#2E3191" d="M203.738,225.93l0.127,0.771c-0.246,0.052-0.467,0.077-0.659,0.077c-0.317,0-0.563-0.051-0.737-0.149
			c-0.174-0.101-0.297-0.231-0.367-0.396c-0.072-0.164-0.106-0.508-0.106-1.03v-2.962h-0.64v-0.678h0.64v-1.275l0.866-0.523v1.799
			h0.879v0.679h-0.879v3.011c0,0.249,0.017,0.409,0.048,0.479c0.03,0.071,0.079,0.129,0.149,0.17
			c0.069,0.043,0.168,0.063,0.299,0.063C203.453,225.963,203.581,225.951,203.738,225.93z"/>
		<path fill="#2E3191" d="M205.164,228.798h-0.626c0.967-1.551,1.45-3.104,1.45-4.657c0-0.607-0.07-1.211-0.209-1.809
			c-0.109-0.484-0.264-0.95-0.461-1.396c-0.125-0.291-0.387-0.774-0.78-1.453h0.626c0.607,0.812,1.057,1.625,1.348,2.442
			c0.248,0.704,0.373,1.441,0.373,2.21c0,0.873-0.167,1.717-0.502,2.53C206.049,227.479,205.643,228.189,205.164,228.798z"/>
	</g>
</g>
<g>
	<g>
		<path fill="#2E3191" d="M91.932,31.583v-7.106h2.681c0.472,0,0.832,0.022,1.081,0.068c0.349,0.058,0.642,0.169,0.877,0.332
			c0.236,0.163,0.426,0.392,0.57,0.686s0.216,0.617,0.216,0.97c0,0.604-0.192,1.115-0.577,1.534
			c-0.385,0.418-1.079,0.628-2.084,0.628h-1.823v2.889L91.932,31.583L91.932,31.583z M92.872,27.855h1.837
			c0.608,0,1.039-0.113,1.295-0.34c0.255-0.226,0.383-0.544,0.383-0.954c0-0.298-0.075-0.552-0.226-0.764
			c-0.151-0.212-0.349-0.352-0.594-0.419c-0.158-0.042-0.451-0.063-0.877-0.063h-1.818V27.855z"/>
		<path fill="#2E3191" d="M98.432,31.583v-5.147h0.785v0.78c0.2-0.365,0.386-0.606,0.556-0.723c0.169-0.116,0.355-0.175,0.56-0.175
			c0.294,0,0.593,0.094,0.896,0.281l-0.301,0.81c-0.213-0.126-0.426-0.188-0.64-0.188c-0.19,0-0.361,0.057-0.514,0.172
			c-0.151,0.114-0.26,0.273-0.324,0.478c-0.098,0.311-0.146,0.649-0.146,1.018v2.695L98.432,31.583L98.432,31.583z"/>
		<path fill="#2E3191" d="M101.424,29.009c0-0.953,0.265-1.659,0.795-2.118c0.442-0.381,0.981-0.572,1.618-0.572
			c0.708,0,1.286,0.232,1.735,0.696c0.449,0.464,0.674,1.104,0.674,1.922c0,0.662-0.099,1.184-0.298,1.563
			c-0.198,0.379-0.488,0.674-0.867,0.884c-0.38,0.211-0.795,0.315-1.244,0.315c-0.721,0-1.303-0.23-1.747-0.693
			C101.646,30.544,101.424,29.878,101.424,29.009z M102.32,29.009c0,0.659,0.144,1.153,0.432,1.481
			c0.287,0.328,0.649,0.492,1.085,0.492c0.434,0,0.794-0.165,1.081-0.495c0.288-0.329,0.432-0.832,0.432-1.507
			c0-0.637-0.145-1.119-0.434-1.447c-0.289-0.328-0.649-0.492-1.079-0.492c-0.436,0-0.798,0.163-1.085,0.489
			C102.464,27.857,102.32,28.35,102.32,29.009z"/>
		<path fill="#2E3191" d="M110.608,31.583v-0.649c-0.326,0.511-0.807,0.766-1.439,0.766c-0.41,0-0.788-0.113-1.132-0.339
			c-0.345-0.227-0.611-0.542-0.8-0.948c-0.189-0.405-0.284-0.871-0.284-1.398c0-0.514,0.086-0.979,0.258-1.398
			c0.171-0.418,0.428-0.739,0.771-0.962c0.342-0.223,0.726-0.335,1.148-0.335c0.311,0,0.587,0.065,0.829,0.196
			c0.242,0.132,0.439,0.302,0.591,0.512v-2.55h0.868v7.106L110.608,31.583L110.608,31.583z M107.851,29.014
			c0,0.659,0.139,1.152,0.417,1.479c0.277,0.326,0.605,0.49,0.983,0.49c0.382,0,0.705-0.156,0.972-0.468
			c0.267-0.313,0.4-0.788,0.4-1.428c0-0.705-0.136-1.222-0.407-1.552c-0.271-0.329-0.605-0.494-1.003-0.494
			c-0.389,0-0.712,0.158-0.973,0.475C107.98,27.833,107.851,28.332,107.851,29.014z"/>
		<path fill="#2E3191" d="M116.164,31.583v-0.756c-0.401,0.581-0.945,0.872-1.634,0.872c-0.304,0-0.587-0.058-0.851-0.175
			c-0.264-0.116-0.459-0.262-0.587-0.438c-0.127-0.176-0.217-0.392-0.269-0.646c-0.036-0.172-0.054-0.443-0.054-0.814v-3.189h0.873
			v2.854c0,0.456,0.018,0.763,0.053,0.921c0.056,0.229,0.172,0.41,0.35,0.541c0.178,0.131,0.397,0.196,0.659,0.196
			c0.262,0,0.507-0.067,0.736-0.201c0.229-0.135,0.392-0.317,0.487-0.548c0.096-0.231,0.143-0.566,0.143-1.006v-2.758h0.873v5.147
			H116.164z"/>
		<path fill="#2E3191" d="M121.67,29.697l0.857,0.111c-0.094,0.592-0.333,1.055-0.72,1.389c-0.386,0.335-0.86,0.502-1.422,0.502
			c-0.705,0-1.271-0.23-1.699-0.69c-0.429-0.461-0.643-1.121-0.643-1.98c0-0.556,0.092-1.042,0.276-1.459
			c0.184-0.417,0.465-0.729,0.841-0.938c0.377-0.209,0.786-0.313,1.229-0.313c0.559,0,1.016,0.142,1.371,0.425
			c0.355,0.282,0.583,0.685,0.684,1.204l-0.849,0.131c-0.08-0.346-0.224-0.605-0.429-0.78c-0.205-0.175-0.453-0.262-0.744-0.262
			c-0.439,0-0.796,0.157-1.071,0.473c-0.274,0.315-0.412,0.813-0.412,1.495c0,0.692,0.133,1.194,0.397,1.508
			c0.266,0.313,0.611,0.471,1.038,0.471c0.342,0,0.628-0.105,0.857-0.315S121.608,30.134,121.67,29.697z"/>
		<path fill="#2E3191" d="M125.18,30.803l0.126,0.771c-0.246,0.052-0.466,0.077-0.659,0.077c-0.317,0-0.563-0.05-0.737-0.149
			c-0.174-0.101-0.297-0.232-0.368-0.396s-0.106-0.507-0.106-1.03v-2.962h-0.64v-0.678h0.64V25.16l0.867-0.523v1.799h0.878v0.678
			h-0.878v3.011c0,0.249,0.016,0.409,0.047,0.479c0.03,0.071,0.08,0.128,0.149,0.17c0.07,0.042,0.169,0.063,0.299,0.063
			C124.894,30.837,125.021,30.825,125.18,30.803z"/>
		<path fill="#2E3191" d="M128.467,29.009c0-0.953,0.266-1.659,0.795-2.118c0.442-0.381,0.981-0.572,1.618-0.572
			c0.708,0,1.286,0.232,1.735,0.696c0.449,0.464,0.674,1.104,0.674,1.922c0,0.662-0.1,1.184-0.298,1.563s-0.488,0.674-0.867,0.884
			c-0.38,0.211-0.795,0.315-1.244,0.315c-0.721,0-1.303-0.23-1.747-0.693C128.688,30.544,128.467,29.878,128.467,29.009z
			 M129.363,29.009c0,0.659,0.144,1.153,0.432,1.481c0.287,0.328,0.648,0.492,1.085,0.492c0.435,0,0.794-0.165,1.081-0.495
			c0.288-0.329,0.432-0.832,0.432-1.507c0-0.637-0.145-1.119-0.434-1.447c-0.289-0.328-0.648-0.492-1.079-0.492
			c-0.437,0-0.798,0.163-1.085,0.489C129.507,27.857,129.363,28.35,129.363,29.009z"/>
		<path fill="#2E3191" d="M134.521,31.583v-4.47h-0.771v-0.678h0.771v-0.548c0-0.346,0.029-0.603,0.092-0.771
			c0.084-0.226,0.23-0.409,0.443-0.55c0.211-0.141,0.508-0.211,0.889-0.211c0.246,0,0.518,0.029,0.814,0.088l-0.131,0.761
			c-0.182-0.032-0.354-0.049-0.514-0.049c-0.266,0-0.453,0.057-0.563,0.17c-0.11,0.113-0.165,0.324-0.165,0.635v0.476h1.004v0.678
			h-1.004v4.47L134.521,31.583L134.521,31.583z"/>
		<path fill="#2E3191" d="M139.809,31.583v-7.106h0.873v7.106H139.809z"/>
		<path fill="#2E3191" d="M145.395,30.948c-0.324,0.274-0.636,0.469-0.935,0.581c-0.299,0.113-0.619,0.17-0.962,0.17
			c-0.564,0-1-0.138-1.305-0.414c-0.303-0.276-0.455-0.63-0.455-1.06c0-0.252,0.058-0.482,0.173-0.69
			c0.114-0.209,0.265-0.376,0.45-0.502c0.185-0.126,0.396-0.222,0.627-0.286c0.172-0.045,0.431-0.089,0.775-0.131
			c0.704-0.084,1.225-0.184,1.557-0.301c0.004-0.119,0.005-0.195,0.005-0.228c0-0.355-0.082-0.605-0.247-0.751
			c-0.223-0.197-0.555-0.296-0.993-0.296c-0.411,0-0.714,0.072-0.909,0.216s-0.34,0.398-0.434,0.764l-0.854-0.116
			c0.077-0.365,0.204-0.66,0.383-0.885c0.178-0.225,0.435-0.397,0.771-0.519c0.336-0.121,0.726-0.183,1.168-0.183
			c0.438,0,0.796,0.052,1.071,0.155c0.273,0.104,0.477,0.233,0.605,0.391c0.129,0.156,0.219,0.354,0.27,0.594
			c0.029,0.148,0.045,0.417,0.045,0.805v1.163c0,0.812,0.02,1.324,0.056,1.539c0.037,0.215,0.11,0.421,0.222,0.618h-0.912
			C145.479,31.402,145.419,31.19,145.395,30.948z M145.32,28.999c-0.316,0.13-0.791,0.239-1.426,0.33
			c-0.357,0.052-0.611,0.109-0.761,0.175c-0.147,0.064-0.264,0.159-0.345,0.283c-0.08,0.124-0.121,0.263-0.121,0.414
			c0,0.233,0.088,0.427,0.266,0.582c0.176,0.155,0.434,0.232,0.772,0.232c0.336,0,0.635-0.073,0.896-0.221
			c0.262-0.146,0.455-0.348,0.578-0.604c0.092-0.196,0.139-0.487,0.139-0.872v-0.319H145.32z"/>
		<path fill="#2E3191" d="M148.359,31.583h-0.811v-7.106h0.873v2.535c0.368-0.462,0.838-0.693,1.41-0.693
			c0.316,0,0.615,0.064,0.898,0.192c0.283,0.127,0.517,0.307,0.699,0.537c0.182,0.231,0.324,0.511,0.428,0.837
			c0.104,0.326,0.156,0.675,0.156,1.047c0,0.882-0.22,1.564-0.654,2.046c-0.438,0.481-0.961,0.722-1.571,0.722
			c-0.606,0-1.084-0.254-1.431-0.761v0.644H148.359z M148.35,28.971c0,0.617,0.084,1.063,0.252,1.338
			c0.274,0.449,0.646,0.674,1.115,0.674c0.381,0,0.711-0.166,0.988-0.497c0.277-0.331,0.417-0.825,0.417-1.481
			c0-0.672-0.133-1.168-0.399-1.488c-0.267-0.319-0.589-0.479-0.967-0.479c-0.382,0-0.711,0.166-0.988,0.497
			C148.489,27.866,148.35,28.344,148.35,28.971z"/>
		<path fill="#2E3191" d="M152.752,29.009c0-0.953,0.266-1.659,0.795-2.118c0.441-0.381,0.98-0.572,1.618-0.572
			c0.708,0,1.286,0.232,1.735,0.696c0.449,0.464,0.674,1.104,0.674,1.922c0,0.662-0.1,1.184-0.299,1.563
			c-0.197,0.379-0.487,0.674-0.866,0.884c-0.38,0.211-0.796,0.315-1.244,0.315c-0.722,0-1.304-0.23-1.747-0.693
			C152.975,30.544,152.752,29.878,152.752,29.009z M153.648,29.009c0,0.659,0.144,1.153,0.432,1.481
			c0.287,0.328,0.648,0.492,1.085,0.492c0.435,0,0.794-0.165,1.081-0.495c0.288-0.329,0.432-0.832,0.432-1.507
			c0-0.637-0.145-1.119-0.434-1.447c-0.289-0.328-0.648-0.492-1.079-0.492c-0.437,0-0.798,0.163-1.085,0.489
			C153.792,27.857,153.648,28.35,153.648,29.009z"/>
		<path fill="#2E3191" d="M158.587,31.583v-5.147h0.785v0.78c0.2-0.365,0.386-0.606,0.556-0.723c0.17-0.116,0.355-0.175,0.561-0.175
			c0.294,0,0.593,0.094,0.896,0.281l-0.301,0.81c-0.213-0.126-0.426-0.188-0.64-0.188c-0.19,0-0.361,0.057-0.514,0.172
			c-0.152,0.114-0.261,0.273-0.324,0.478c-0.099,0.311-0.146,0.649-0.146,1.018v2.695L158.587,31.583L158.587,31.583z"/>
		<path fill="#2E3191" d="M93.488,49.272c-0.482-0.607-0.889-1.318-1.222-2.133s-0.5-1.657-0.5-2.53c0-0.769,0.125-1.506,0.374-2.21
			c0.291-0.817,0.739-1.632,1.348-2.443h0.625c-0.392,0.672-0.649,1.152-0.775,1.439c-0.197,0.446-0.353,0.912-0.466,1.396
			c-0.139,0.604-0.208,1.212-0.208,1.822c0,1.555,0.482,3.107,1.449,4.658L93.488,49.272L93.488,49.272z"/>
		<path fill="#2E3191" d="M94.918,44.9l0.887-0.077c0.042,0.354,0.14,0.646,0.293,0.875c0.153,0.228,0.393,0.412,0.715,0.552
			c0.323,0.141,0.688,0.211,1.091,0.211c0.359,0,0.676-0.053,0.95-0.159c0.274-0.107,0.479-0.253,0.613-0.439
			c0.134-0.186,0.201-0.388,0.201-0.608c0-0.223-0.064-0.417-0.193-0.584c-0.13-0.166-0.343-0.306-0.641-0.419
			c-0.19-0.074-0.612-0.189-1.265-0.347c-0.653-0.156-1.11-0.305-1.372-0.443c-0.339-0.178-0.592-0.398-0.759-0.662
			c-0.166-0.263-0.249-0.558-0.249-0.885c0-0.358,0.102-0.693,0.305-1.005c0.204-0.313,0.501-0.549,0.893-0.711
			c0.391-0.161,0.825-0.242,1.304-0.242c0.526,0,0.991,0.085,1.394,0.255c0.402,0.169,0.712,0.419,0.928,0.749
			c0.217,0.329,0.333,0.702,0.35,1.119l-0.901,0.068c-0.049-0.449-0.213-0.789-0.492-1.019c-0.279-0.23-0.692-0.344-1.238-0.344
			c-0.569,0-0.983,0.104-1.244,0.313c-0.26,0.209-0.39,0.46-0.39,0.754c0,0.255,0.092,0.465,0.276,0.63
			c0.181,0.165,0.653,0.334,1.418,0.507c0.764,0.173,1.288,0.324,1.572,0.453c0.414,0.19,0.72,0.433,0.916,0.725
			c0.197,0.293,0.296,0.63,0.296,1.011c0,0.378-0.108,0.734-0.324,1.069c-0.217,0.334-0.528,0.594-0.934,0.78
			c-0.405,0.186-0.862,0.278-1.369,0.278c-0.644,0-1.182-0.094-1.616-0.281c-0.436-0.188-0.776-0.469-1.023-0.846
			C95.061,45.802,94.931,45.376,94.918,44.9z"/>
		<path fill="#2E3191" d="M105.122,47.184v-0.756c-0.401,0.581-0.945,0.872-1.634,0.872c-0.304,0-0.587-0.058-0.851-0.175
			c-0.264-0.116-0.459-0.262-0.587-0.438c-0.127-0.176-0.217-0.392-0.269-0.646c-0.036-0.172-0.054-0.443-0.054-0.814v-3.189h0.873
			v2.854c0,0.456,0.018,0.763,0.053,0.921c0.056,0.229,0.172,0.41,0.35,0.541c0.178,0.131,0.397,0.196,0.659,0.196
			c0.262,0,0.507-0.067,0.736-0.201c0.229-0.135,0.392-0.317,0.487-0.548c0.096-0.231,0.143-0.566,0.143-1.006v-2.758h0.873v5.147
			H105.122z"/>
		<path fill="#2E3191" d="M108.073,47.184h-0.81v-7.106h0.873v2.535c0.368-0.462,0.838-0.693,1.41-0.693
			c0.316,0,0.616,0.064,0.899,0.192c0.282,0.127,0.516,0.307,0.698,0.537c0.182,0.231,0.325,0.511,0.429,0.837
			c0.104,0.326,0.155,0.675,0.155,1.047c0,0.882-0.219,1.564-0.654,2.046c-0.437,0.481-0.96,0.722-1.571,0.722
			c-0.607,0-1.084-0.254-1.43-0.761L108.073,47.184L108.073,47.184z M108.063,44.571c0,0.617,0.084,1.063,0.252,1.338
			c0.274,0.449,0.646,0.674,1.115,0.674c0.381,0,0.711-0.166,0.988-0.497c0.278-0.331,0.417-0.825,0.417-1.481
			c0-0.672-0.133-1.168-0.399-1.488c-0.267-0.319-0.589-0.479-0.967-0.479c-0.382,0-0.711,0.166-0.989,0.497
			C108.202,43.466,108.063,43.944,108.063,44.571z"/>
		<path fill="#2E3191" d="M111.68,49.181l0.165-0.741c0.175,0.045,0.312,0.067,0.412,0.067c0.178,0,0.311-0.059,0.397-0.177
			c0.086-0.118,0.131-0.413,0.131-0.885v-5.409h0.873v5.429c0,0.633-0.083,1.074-0.248,1.323c-0.21,0.323-0.559,0.484-1.047,0.484
			C112.128,49.272,111.899,49.242,111.68,49.181z M112.785,41.091v-1.014h0.873v1.014H112.785z"/>
		<path fill="#2E3191" d="M118.52,45.525l0.901,0.112c-0.143,0.526-0.405,0.936-0.79,1.226c-0.385,0.291-0.876,0.437-1.474,0.437
			c-0.753,0-1.35-0.231-1.791-0.695c-0.441-0.464-0.662-1.114-0.662-1.951c0-0.866,0.224-1.538,0.669-2.017
			c0.446-0.479,1.024-0.718,1.735-0.718c0.688,0,1.251,0.234,1.688,0.703c0.436,0.469,0.654,1.128,0.654,1.978
			c0,0.052-0.002,0.13-0.005,0.233h-3.839c0.032,0.565,0.191,0.998,0.479,1.299c0.287,0.301,0.646,0.451,1.076,0.451
			c0.319,0,0.593-0.085,0.819-0.253C118.207,46.162,118.387,45.895,118.52,45.525z M115.654,44.115h2.875
			c-0.039-0.433-0.149-0.758-0.33-0.975c-0.278-0.336-0.638-0.504-1.081-0.504c-0.4,0-0.737,0.134-1.011,0.402
			C115.835,43.308,115.684,43.666,115.654,44.115z"/>
		<path fill="#2E3191" d="M123.876,45.298l0.857,0.111c-0.094,0.592-0.333,1.055-0.72,1.389c-0.386,0.335-0.86,0.502-1.422,0.502
			c-0.705,0-1.271-0.23-1.699-0.69c-0.429-0.461-0.643-1.121-0.643-1.98c0-0.556,0.092-1.042,0.276-1.459s0.465-0.729,0.841-0.938
			c0.377-0.209,0.786-0.313,1.229-0.313c0.559,0,1.016,0.142,1.371,0.425c0.355,0.282,0.583,0.686,0.684,1.204l-0.849,0.131
			c-0.08-0.346-0.224-0.605-0.429-0.78c-0.205-0.175-0.453-0.262-0.744-0.262c-0.439,0-0.796,0.157-1.071,0.473
			c-0.274,0.315-0.412,0.813-0.412,1.495c0,0.692,0.133,1.194,0.397,1.508c0.266,0.313,0.611,0.471,1.038,0.471
			c0.342,0,0.628-0.105,0.857-0.315S123.814,45.734,123.876,45.298z"/>
		<path fill="#2E3191" d="M127.387,46.403l0.125,0.771c-0.246,0.052-0.466,0.077-0.658,0.077c-0.317,0-0.563-0.05-0.737-0.149
			c-0.174-0.101-0.297-0.232-0.368-0.396s-0.106-0.507-0.106-1.03v-2.962h-0.64v-0.678h0.64v-1.275l0.867-0.523v1.799h0.878v0.678
			h-0.878v3.011c0,0.249,0.017,0.409,0.048,0.479c0.029,0.071,0.08,0.128,0.148,0.17c0.07,0.042,0.169,0.063,0.299,0.063
			C127.1,46.438,127.229,46.426,127.387,46.403z"/>
		<path fill="#2E3191" d="M127.898,45.051v-0.877h2.682v0.877H127.898z"/>
		<path fill="#2E3191" d="M131.221,44.609c0-0.953,0.264-1.659,0.795-2.118c0.441-0.381,0.98-0.572,1.617-0.572
			c0.708,0,1.286,0.232,1.735,0.696c0.448,0.464,0.674,1.104,0.674,1.922c0,0.662-0.099,1.184-0.298,1.563
			c-0.198,0.379-0.488,0.674-0.867,0.884c-0.38,0.211-0.795,0.315-1.244,0.315c-0.721,0-1.303-0.23-1.746-0.693
			C131.441,46.145,131.221,45.479,131.221,44.609z M132.116,44.609c0,0.659,0.144,1.153,0.432,1.481
			c0.287,0.328,0.649,0.492,1.085,0.492c0.434,0,0.795-0.165,1.081-0.495c0.288-0.329,0.433-0.832,0.433-1.507
			c0-0.637-0.146-1.119-0.435-1.447c-0.289-0.328-0.649-0.492-1.079-0.492c-0.436,0-0.798,0.163-1.085,0.489
			C132.26,43.458,132.116,43.95,132.116,44.609z"/>
		<path fill="#2E3191" d="M137.87,47.184h-0.81v-7.106h0.873v2.535c0.367-0.462,0.838-0.693,1.409-0.693
			c0.316,0,0.616,0.064,0.899,0.192c0.281,0.127,0.516,0.307,0.697,0.537c0.183,0.231,0.326,0.511,0.43,0.837
			c0.104,0.326,0.154,0.675,0.154,1.047c0,0.882-0.219,1.564-0.653,2.046c-0.437,0.481-0.96,0.722-1.571,0.722
			c-0.607,0-1.084-0.254-1.43-0.761L137.87,47.184L137.87,47.184z M137.859,44.571c0,0.617,0.084,1.063,0.252,1.338
			c0.275,0.449,0.646,0.674,1.115,0.674c0.381,0,0.711-0.166,0.988-0.497c0.278-0.331,0.417-0.825,0.417-1.481
			c0-0.672-0.133-1.168-0.399-1.488c-0.267-0.319-0.588-0.479-0.967-0.479c-0.382,0-0.711,0.166-0.988,0.497
			C137.999,43.466,137.859,43.944,137.859,44.571z"/>
		<path fill="#2E3191" d="M141.477,49.181l0.164-0.741c0.176,0.045,0.313,0.067,0.412,0.067c0.178,0,0.311-0.059,0.397-0.177
			c0.086-0.118,0.131-0.413,0.131-0.885v-5.409h0.873v5.429c0,0.633-0.083,1.074-0.248,1.323c-0.21,0.323-0.56,0.484-1.047,0.484
			C141.924,49.272,141.695,49.242,141.477,49.181z M142.581,41.091v-1.014h0.873v1.014H142.581z"/>
		<path fill="#2E3191" d="M148.316,45.525l0.9,0.112c-0.143,0.526-0.404,0.936-0.789,1.226c-0.386,0.291-0.877,0.437-1.475,0.437
			c-0.753,0-1.35-0.231-1.791-0.695s-0.662-1.114-0.662-1.951c0-0.866,0.225-1.538,0.669-2.017c0.446-0.479,1.024-0.718,1.735-0.718
			c0.688,0,1.25,0.234,1.688,0.703c0.436,0.469,0.654,1.128,0.654,1.978c0,0.052-0.002,0.13-0.005,0.233h-3.839
			c0.031,0.565,0.19,0.998,0.479,1.299c0.287,0.301,0.646,0.451,1.076,0.451c0.318,0,0.593-0.085,0.818-0.253
			C148.004,46.162,148.184,45.895,148.316,45.525z M145.451,44.115h2.875c-0.039-0.433-0.148-0.758-0.33-0.975
			c-0.278-0.336-0.639-0.504-1.081-0.504c-0.399,0-0.737,0.134-1.011,0.402C145.632,43.308,145.48,43.666,145.451,44.115z"/>
		<path fill="#2E3191" d="M153.672,45.298l0.857,0.111c-0.094,0.592-0.334,1.055-0.721,1.389c-0.386,0.335-0.859,0.502-1.422,0.502
			c-0.705,0-1.271-0.23-1.699-0.69c-0.429-0.461-0.643-1.121-0.643-1.98c0-0.556,0.092-1.042,0.275-1.459
			c0.185-0.417,0.466-0.729,0.842-0.938c0.377-0.209,0.785-0.313,1.229-0.313c0.56,0,1.017,0.142,1.371,0.425
			c0.355,0.282,0.584,0.686,0.684,1.204l-0.848,0.131c-0.08-0.346-0.225-0.605-0.43-0.78c-0.205-0.175-0.453-0.262-0.744-0.262
			c-0.439,0-0.796,0.157-1.07,0.473c-0.274,0.315-0.412,0.813-0.412,1.495c0,0.692,0.133,1.194,0.396,1.508
			c0.266,0.313,0.611,0.471,1.038,0.471c0.342,0,0.628-0.105,0.856-0.315C153.462,46.06,153.609,45.734,153.672,45.298z"/>
		<path fill="#2E3191" d="M157.182,46.403l0.127,0.771c-0.246,0.052-0.467,0.077-0.66,0.077c-0.316,0-0.563-0.05-0.736-0.149
			c-0.174-0.101-0.297-0.232-0.368-0.396s-0.106-0.507-0.106-1.03v-2.962h-0.64v-0.678h0.64v-1.275l0.867-0.523v1.799h0.879v0.678
			h-0.879v3.011c0,0.249,0.016,0.409,0.047,0.479c0.03,0.071,0.08,0.128,0.149,0.17s0.169,0.063,0.299,0.063
			C156.896,46.438,157.023,46.426,157.182,46.403z"/>
		<path fill="#2E3191" d="M158.607,49.272h-0.627c0.967-1.551,1.451-3.104,1.451-4.658c0-0.607-0.07-1.21-0.209-1.808
			c-0.109-0.485-0.265-0.95-0.461-1.396c-0.126-0.291-0.387-0.775-0.781-1.454h0.627c0.606,0.812,1.057,1.626,1.348,2.443
			c0.248,0.704,0.373,1.441,0.373,2.21c0,0.873-0.167,1.716-0.502,2.53C159.492,47.954,159.086,48.665,158.607,49.272z"/>
	</g>
</g>
<rect x="109" y="65" fill="#2E3191" width="27" height="26"/>
<polygon fill="#2E3191" points="201,184.434 190,190.55 179,184.434 179,172.199 190,166.08 201,172.199 "/>
<path fill="#2E3191" d="M54.482,166.4c6.502,0,11.77,5.273,11.77,11.777c0,6.496-5.268,11.769-11.77,11.769
	c-6.5,0-11.769-5.271-11.769-11.769C42.714,171.675,47.982,166.4,54.482,166.4z"/>
<path fill="#2E3191" d="M28.425,210.518v-7.106h0.94v6.269h3.5v0.838H28.425L28.425,210.518z"/>
<path fill="#2E3191" d="M37.233,209.882c-0.323,0.274-0.634,0.47-0.933,0.581c-0.299,0.113-0.62,0.17-0.962,0.17
	c-0.565,0-1-0.138-1.304-0.414c-0.304-0.275-0.456-0.63-0.456-1.06c0-0.252,0.057-0.482,0.172-0.69
	c0.115-0.209,0.265-0.376,0.451-0.502s0.395-0.222,0.628-0.285c0.171-0.046,0.43-0.09,0.775-0.132
	c0.705-0.084,1.223-0.184,1.556-0.301c0.003-0.119,0.005-0.194,0.005-0.228c0-0.355-0.083-0.605-0.247-0.752
	c-0.223-0.196-0.555-0.295-0.994-0.295c-0.41,0-0.713,0.071-0.909,0.215c-0.196,0.145-0.34,0.398-0.434,0.765l-0.854-0.116
	c0.078-0.365,0.206-0.66,0.383-0.885c0.177-0.225,0.435-0.396,0.771-0.52c0.336-0.121,0.726-0.183,1.168-0.183
	c0.439,0,0.796,0.052,1.071,0.155c0.274,0.104,0.477,0.232,0.605,0.391c0.129,0.156,0.22,0.354,0.271,0.594
	c0.029,0.148,0.044,0.418,0.044,0.806v1.163c0,0.812,0.019,1.324,0.056,1.539c0.037,0.215,0.11,0.42,0.221,0.617h-0.912
	C37.317,210.336,37.259,210.124,37.233,209.882z M37.16,207.934c-0.317,0.129-0.792,0.238-1.425,0.33
	c-0.358,0.051-0.612,0.108-0.761,0.174c-0.149,0.064-0.264,0.16-0.344,0.283c-0.081,0.124-0.121,0.264-0.121,0.414
	c0,0.233,0.088,0.428,0.264,0.582c0.176,0.155,0.434,0.232,0.773,0.232c0.336,0,0.635-0.073,0.897-0.221
	c0.262-0.146,0.454-0.349,0.577-0.604c0.094-0.196,0.141-0.487,0.141-0.872L37.16,207.934L37.16,207.934z"/>
<path fill="#2E3191" d="M40.199,210.518h-0.81v-7.106h0.873v2.534c0.369-0.461,0.839-0.692,1.411-0.692
	c0.317,0,0.616,0.063,0.899,0.192c0.283,0.127,0.515,0.307,0.698,0.537s0.326,0.511,0.429,0.836
	c0.103,0.326,0.155,0.676,0.155,1.048c0,0.882-0.218,1.563-0.654,2.046c-0.436,0.48-0.959,0.722-1.57,0.722
	c-0.608,0-1.084-0.254-1.43-0.761L40.199,210.518L40.199,210.518z M40.189,207.904c0,0.617,0.084,1.063,0.252,1.338
	c0.275,0.449,0.646,0.674,1.115,0.674c0.381,0,0.711-0.166,0.989-0.497s0.417-0.825,0.417-1.481c0-0.672-0.133-1.168-0.4-1.487
	s-0.589-0.479-0.967-0.479c-0.381,0-0.711,0.166-0.989,0.497S40.189,207.277,40.189,207.904z"/>
<path fill="#2E3191" d="M44.591,207.941c0-0.952,0.265-1.658,0.795-2.117c0.443-0.381,0.982-0.572,1.619-0.572
	c0.708,0,1.286,0.232,1.735,0.696c0.449,0.464,0.674,1.104,0.674,1.922c0,0.662-0.1,1.185-0.298,1.563
	c-0.199,0.379-0.488,0.674-0.868,0.883c-0.38,0.211-0.794,0.315-1.243,0.315c-0.721,0-1.303-0.229-1.748-0.692
	C44.813,209.479,44.591,208.813,44.591,207.941z M45.488,207.941c0,0.66,0.144,1.153,0.431,1.481s0.649,0.492,1.086,0.492
	c0.433,0,0.793-0.165,1.081-0.495c0.288-0.329,0.431-0.832,0.431-1.507c0-0.638-0.145-1.119-0.434-1.447
	c-0.29-0.327-0.649-0.491-1.079-0.491c-0.437,0-0.798,0.162-1.086,0.488C45.632,206.791,45.488,207.283,45.488,207.941z"/>
<path fill="#2E3191" d="M50.458,210.55v-5.147h0.786v0.78c0.2-0.365,0.385-0.606,0.555-0.724c0.17-0.116,0.356-0.175,0.56-0.175
	c0.294,0,0.593,0.094,0.896,0.281l-0.3,0.81c-0.213-0.126-0.427-0.188-0.64-0.188c-0.191,0-0.362,0.058-0.514,0.173
	c-0.152,0.114-0.26,0.272-0.325,0.478c-0.097,0.312-0.146,0.649-0.146,1.019v2.694H50.458L50.458,210.55z"/>
<path fill="#2E3191" d="M57.022,212.489v-7.12h0.795v0.669c0.188-0.263,0.399-0.458,0.635-0.59c0.236-0.132,0.521-0.196,0.858-0.196
	c0.439,0,0.827,0.113,1.163,0.34s0.59,0.545,0.761,0.957s0.257,0.864,0.257,1.355c0,0.525-0.094,1.001-0.284,1.422
	c-0.189,0.422-0.463,0.744-0.824,0.97c-0.361,0.226-0.739,0.337-1.137,0.337c-0.291,0-0.552-0.062-0.783-0.184
	c-0.231-0.123-0.421-0.278-0.57-0.467v2.507H57.022z M57.812,207.973c0,0.661,0.134,1.151,0.402,1.469
	c0.269,0.315,0.593,0.476,0.975,0.476c0.388,0,0.72-0.164,0.996-0.492c0.276-0.327,0.415-0.837,0.415-1.524
	c0-0.655-0.135-1.146-0.405-1.474s-0.592-0.489-0.967-0.489c-0.372,0-0.7,0.174-0.986,0.521
	C57.956,206.805,57.812,207.311,57.812,207.973z"/>
<path fill="#2E3191" d="M62.218,207.941c0-0.952,0.265-1.658,0.795-2.117c0.443-0.381,0.982-0.572,1.619-0.572
	c0.708,0,1.286,0.232,1.735,0.696c0.449,0.464,0.674,1.104,0.674,1.922c0,0.662-0.1,1.185-0.298,1.563
	c-0.199,0.379-0.488,0.674-0.868,0.883c-0.38,0.211-0.794,0.315-1.243,0.315c-0.721,0-1.303-0.229-1.748-0.692
	C62.44,209.479,62.218,208.813,62.218,207.941z M63.115,207.941c0,0.66,0.144,1.153,0.431,1.481s0.649,0.492,1.086,0.492
	c0.433,0,0.793-0.165,1.081-0.495c0.288-0.329,0.431-0.832,0.431-1.507c0-0.638-0.145-1.119-0.434-1.447
	c-0.29-0.327-0.649-0.491-1.079-0.491c-0.437,0-0.798,0.162-1.086,0.488C63.259,206.791,63.115,207.283,63.115,207.941z"/>
<path fill="#2E3191" d="M69.015,210.518l-1.575-5.147h0.901l0.819,2.971l0.305,1.104c0.013-0.055,0.102-0.408,0.267-1.062
	l0.819-3.015h0.896l0.771,2.984l0.257,0.984l0.296-0.994l0.882-2.976h0.849l-1.609,5.147h-0.907l-0.819-3.084l-0.199-0.877
	l-1.042,3.961h-0.911V210.518z"/>
<path fill="#2E3191" d="M78.758,208.857l0.901,0.112c-0.143,0.526-0.405,0.937-0.79,1.226c-0.385,0.291-0.876,0.438-1.474,0.438
	c-0.753,0-1.35-0.23-1.791-0.695c-0.441-0.463-0.662-1.113-0.662-1.951c0-0.865,0.224-1.537,0.669-2.017
	c0.446-0.479,1.024-0.718,1.735-0.718c0.688,0,1.251,0.234,1.688,0.703c0.436,0.469,0.654,1.128,0.654,1.979
	c0,0.051-0.002,0.129-0.005,0.232h-3.839c0.032,0.564,0.191,0.998,0.479,1.299c0.287,0.301,0.646,0.451,1.076,0.451
	c0.319,0,0.593-0.085,0.819-0.253C78.445,209.495,78.625,209.229,78.758,208.857z M75.893,207.448h2.875
	c-0.039-0.433-0.149-0.759-0.33-0.976c-0.278-0.336-0.638-0.504-1.081-0.504c-0.4,0-0.737,0.135-1.011,0.402
	C76.073,206.641,75.922,206.999,75.893,207.448z"/>
<path fill="#2E3191" d="M80.745,210.518v-5.147h0.785v0.78c0.2-0.365,0.386-0.606,0.556-0.724c0.169-0.116,0.355-0.175,0.56-0.175
	c0.294,0,0.593,0.094,0.896,0.281l-0.301,0.81c-0.213-0.126-0.426-0.188-0.64-0.188c-0.19,0-0.361,0.058-0.514,0.173
	c-0.151,0.114-0.26,0.272-0.324,0.478c-0.098,0.312-0.146,0.649-0.146,1.019v2.694H80.745L80.745,210.518z"/>
<path fill="#2E3191" d="M38.512,228.206c-0.481-0.606-0.889-1.317-1.221-2.133c-0.333-0.814-0.5-1.657-0.5-2.53
	c0-0.77,0.125-1.506,0.373-2.21c0.291-0.817,0.74-1.632,1.348-2.442h0.625c-0.391,0.672-0.649,1.151-0.776,1.438
	c-0.197,0.446-0.352,0.912-0.465,1.396c-0.139,0.604-0.208,1.213-0.208,1.822c0,1.555,0.483,3.107,1.449,4.658L38.512,228.206
	L38.512,228.206z"/>
<path fill="#2E3191" d="M39.942,223.834l0.887-0.077c0.042,0.354,0.14,0.646,0.293,0.875c0.153,0.228,0.392,0.412,0.715,0.552
	c0.323,0.142,0.687,0.211,1.091,0.211c0.358,0,0.675-0.053,0.95-0.158c0.275-0.107,0.479-0.254,0.613-0.439
	c0.134-0.186,0.201-0.388,0.201-0.607c0-0.224-0.064-0.418-0.194-0.584c-0.129-0.166-0.343-0.307-0.64-0.42
	c-0.191-0.074-0.613-0.188-1.265-0.347c-0.653-0.155-1.11-0.305-1.372-0.442c-0.339-0.179-0.592-0.398-0.758-0.662
	c-0.167-0.264-0.25-0.559-0.25-0.885c0-0.358,0.102-0.693,0.306-1.006s0.5-0.549,0.892-0.711c0.391-0.16,0.826-0.242,1.304-0.242
	c0.526,0,0.991,0.086,1.394,0.256c0.402,0.168,0.711,0.418,0.928,0.748c0.216,0.33,0.333,0.703,0.349,1.119l-0.902,0.068
	c-0.048-0.449-0.212-0.789-0.492-1.02c-0.28-0.229-0.692-0.344-1.239-0.344c-0.569,0-0.983,0.104-1.243,0.313
	c-0.26,0.209-0.39,0.46-0.39,0.754c0,0.255,0.092,0.465,0.276,0.63c0.181,0.165,0.653,0.334,1.417,0.507s1.289,0.324,1.573,0.453
	c0.414,0.19,0.719,0.433,0.916,0.726c0.197,0.293,0.296,0.629,0.296,1.011c0,0.378-0.108,0.733-0.325,1.069
	c-0.216,0.334-0.527,0.594-0.933,0.779c-0.405,0.186-0.862,0.278-1.369,0.278c-0.643,0-1.182-0.095-1.617-0.281
	s-0.775-0.469-1.023-0.846C40.085,224.734,39.955,224.311,39.942,223.834z"/>
<path fill="#2E3191" d="M50.146,226.117v-0.756c-0.401,0.58-0.945,0.871-1.634,0.871c-0.304,0-0.587-0.058-0.851-0.174
	c-0.264-0.117-0.459-0.263-0.586-0.438c-0.128-0.177-0.218-0.392-0.269-0.646c-0.036-0.173-0.054-0.443-0.054-0.814v-3.189h0.873
	v2.854c0,0.456,0.018,0.763,0.054,0.921c0.055,0.229,0.171,0.41,0.349,0.541c0.178,0.131,0.397,0.195,0.659,0.195
	s0.507-0.066,0.737-0.2c0.229-0.136,0.392-0.317,0.487-0.548c0.095-0.231,0.143-0.566,0.143-1.006v-2.758h0.873v5.146H50.146z"/>
<path fill="#2E3191" d="M53.098,226.117h-0.81v-7.106h0.873v2.535c0.369-0.462,0.839-0.692,1.411-0.692
	c0.317,0,0.616,0.063,0.899,0.191c0.283,0.127,0.515,0.307,0.698,0.537s0.326,0.511,0.429,0.837s0.155,0.675,0.155,1.047
	c0,0.882-0.218,1.564-0.654,2.046s-0.959,0.723-1.57,0.723c-0.608,0-1.084-0.254-1.43-0.762L53.098,226.117L53.098,226.117z
	 M53.088,223.505c0,0.617,0.084,1.063,0.252,1.338c0.275,0.449,0.646,0.675,1.115,0.675c0.381,0,0.711-0.166,0.989-0.498
	c0.278-0.33,0.417-0.824,0.417-1.48c0-0.672-0.133-1.168-0.4-1.488c-0.267-0.318-0.589-0.479-0.967-0.479
	c-0.381,0-0.711,0.166-0.989,0.496C53.227,222.4,53.088,222.878,53.088,223.505z"/>
<path fill="#2E3191" d="M56.705,228.114l0.165-0.741c0.175,0.045,0.312,0.066,0.412,0.066c0.178,0,0.311-0.059,0.397-0.176
	c0.087-0.119,0.131-0.414,0.131-0.886v-5.409h0.873v5.43c0,0.633-0.083,1.074-0.247,1.322c-0.21,0.323-0.559,0.484-1.047,0.484
	C57.152,228.206,56.924,228.176,56.705,228.114z M57.81,220.023v-1.014h0.873v1.014H57.81z"/>
<path fill="#2E3191" d="M63.544,224.459l0.902,0.111c-0.142,0.527-0.406,0.937-0.79,1.227c-0.385,0.291-0.876,0.438-1.474,0.438
	c-0.753,0-1.35-0.231-1.791-0.695s-0.662-1.114-0.662-1.951c0-0.865,0.223-1.538,0.669-2.018c0.446-0.479,1.024-0.717,1.735-0.717
	c0.688,0,1.25,0.233,1.687,0.703c0.437,0.469,0.654,1.127,0.654,1.978c0,0.052-0.001,0.13-0.005,0.233H60.63
	c0.032,0.564,0.192,0.998,0.48,1.299s0.646,0.451,1.076,0.451c0.32,0,0.593-0.086,0.819-0.254
	C63.232,225.096,63.412,224.828,63.544,224.459z M60.679,223.049h2.875c-0.039-0.433-0.148-0.758-0.33-0.975
	c-0.278-0.336-0.638-0.504-1.081-0.504c-0.4,0-0.737,0.134-1.01,0.402C60.859,222.241,60.708,222.6,60.679,223.049z"/>
<path fill="#2E3191" d="M68.9,224.23l0.858,0.111c-0.094,0.592-0.333,1.055-0.72,1.389c-0.386,0.336-0.86,0.502-1.423,0.502
	c-0.705,0-1.271-0.229-1.699-0.689c-0.428-0.461-0.643-1.121-0.643-1.98c0-0.556,0.092-1.041,0.276-1.459
	c0.184-0.416,0.464-0.729,0.841-0.938c0.376-0.209,0.786-0.313,1.229-0.313c0.559,0,1.016,0.142,1.372,0.424
	c0.355,0.283,0.583,0.686,0.684,1.205l-0.848,0.131c-0.081-0.346-0.224-0.605-0.429-0.78s-0.453-0.263-0.744-0.263
	c-0.44,0-0.797,0.158-1.071,0.474c-0.275,0.315-0.412,0.813-0.412,1.495c0,0.691,0.132,1.193,0.397,1.508
	c0.265,0.313,0.611,0.471,1.037,0.471c0.343,0,0.628-0.104,0.858-0.314S68.839,224.668,68.9,224.23z"/>
<path fill="#2E3191" d="M72.41,225.337l0.126,0.771c-0.246,0.053-0.465,0.078-0.659,0.078c-0.317,0-0.563-0.051-0.737-0.149
	c-0.175-0.101-0.297-0.231-0.369-0.396c-0.071-0.164-0.106-0.508-0.106-1.031v-2.961h-0.64v-0.679h0.64v-1.274l0.868-0.523v1.799
	h0.877v0.678h-0.877v3.012c0,0.249,0.015,0.408,0.046,0.479c0.031,0.071,0.081,0.129,0.15,0.17c0.069,0.043,0.169,0.063,0.298,0.063
	C72.124,225.371,72.251,225.359,72.41,225.337z"/>
<path fill="#2E3191" d="M73.835,228.206H73.21c0.966-1.551,1.449-3.104,1.449-4.658c0-0.606-0.069-1.21-0.208-1.808
	c-0.11-0.485-0.263-0.95-0.46-1.396c-0.126-0.291-0.386-0.775-0.78-1.453h0.625c0.607,0.812,1.057,1.625,1.347,2.442
	c0.249,0.704,0.374,1.44,0.374,2.21c0,0.873-0.167,1.716-0.502,2.53C74.72,226.887,74.313,227.6,73.835,228.206z"/>
<g id="Layer_1_1_">
</g>
</svg>
